<svg width="58" height="58" viewBox="0 0 58 58" fill="none" xmlns="http://www.w3.org/2000/svg">
<path d="M31.8013 40.3333H26.788C23.2413 40.3333 20.3347 37.3466 20.3347 33.6666C20.3347 32.5733 21.2413 31.6666 22.3347 31.6666C23.428 31.6666 24.3347 32.5733 24.3347 33.6666C24.3347 35.1333 25.428 36.3333 26.788 36.3333H31.8013C32.8413 36.3333 33.668 35.3999 33.668 34.2533C33.668 32.8133 33.268 32.5999 32.3613 32.2799L24.3347 29.4799C22.628 28.8666 20.3347 27.6399 20.3347 23.7199C20.3347 20.3866 22.9747 17.6399 26.2013 17.6399H31.2147C34.7613 17.6399 37.668 20.6266 37.668 24.3066C37.668 25.3999 36.7613 26.3066 35.668 26.3066C34.5747 26.3066 33.668 25.3999 33.668 24.3066C33.668 22.8399 32.5747 21.6399 31.2147 21.6399H26.2013C25.1613 21.6399 24.3347 22.5732 24.3347 23.7199C24.3347 25.1599 24.7347 25.3733 25.6413 25.6933L33.668 28.4933C35.3747 29.1066 37.668 30.3333 37.668 34.2533C37.668 37.6133 35.028 40.3333 31.8013 40.3333Z" fill="url(#paint0_linear_13_28685)"/>
<path d="M29.0013 43C27.908 43 27.0013 42.0933 27.0013 41V17C27.0013 15.9067 27.908 15 29.0013 15C30.0947 15 31.0013 15.9067 31.0013 17V41C31.0013 42.0933 30.0947 43 29.0013 43Z" fill="url(#paint1_linear_13_28685)"/>
<path d="M29.0013 57.6666C13.188 57.6666 0.334656 44.8133 0.334656 28.9999C0.334656 13.1866 13.188 0.333252 29.0013 0.333252C30.0947 0.333252 31.0013 1.23992 31.0013 2.33325C31.0013 3.42659 30.0947 4.33325 29.0013 4.33325C15.4013 4.33325 4.33466 15.3999 4.33466 28.9999C4.33466 42.5999 15.4013 53.6666 29.0013 53.6666C42.6013 53.6666 53.668 42.5999 53.668 28.9999C53.668 27.9066 54.5747 26.9999 55.668 26.9999C56.7613 26.9999 57.668 27.9066 57.668 28.9999C57.668 44.8133 44.8147 57.6666 29.0013 57.6666Z" fill="url(#paint2_linear_13_28685)"/>
<path d="M55.668 14.9999C54.5747 14.9999 53.668 14.0933 53.668 12.9999V4.33325H45.0013C43.908 4.33325 43.0013 3.42659 43.0013 2.33325C43.0013 1.23992 43.908 0.333252 45.0013 0.333252H55.668C56.7613 0.333252 57.668 1.23992 57.668 2.33325V12.9999C57.668 14.0933 56.7613 14.9999 55.668 14.9999Z" fill="#F27457"/>
<path d="M42.3344 17.6665C41.8277 17.6665 41.3211 17.4798 40.9211 17.0798C40.1477 16.3065 40.1477 15.0265 40.9211 14.2532L54.2544 0.919844C55.0277 0.14651 56.3077 0.14651 57.0811 0.919844C57.8544 1.69318 57.8544 2.97318 57.0811 3.74651L43.7477 17.0798C43.3477 17.4798 42.8411 17.6665 42.3344 17.6665Z" fill="#F27457"/>
<defs>
<linearGradient id="paint0_linear_13_28685" x1="29.0013" y1="17.6399" x2="29.0013" y2="40.3333" gradientUnits="userSpaceOnUse">
<stop stop-color="#F27457"/>
<stop offset="1" stop-color="#A08488"/>
</linearGradient>
<linearGradient id="paint1_linear_13_28685" x1="29.0013" y1="15" x2="29.0013" y2="43" gradientUnits="userSpaceOnUse">
<stop stop-color="#F27457"/>
<stop offset="1" stop-color="#A08488"/>
</linearGradient>
<linearGradient id="paint2_linear_13_28685" x1="29.0013" y1="0.333252" x2="29.0013" y2="57.6666" gradientUnits="userSpaceOnUse">
<stop stop-color="#F27457"/>
<stop offset="1" stop-color="#A08488"/>
</linearGradient>
</defs>
</svg>
