<svg width="58" height="58" viewBox="0 0 58 58" fill="none" xmlns="http://www.w3.org/2000/svg">
<path d="M25.1609 57.56C22.2807 57.56 19.3741 56.7333 17.1341 55.0533L5.72075 46.52C2.70741 44.28 0.360718 39.56 0.360718 35.7733V16.0133C0.360718 11.9333 3.34744 7.58659 7.18744 6.14659L20.4674 1.15992C23.1074 0.173255 27.2409 0.173255 29.8809 1.15992L43.1342 6.14659C46.2542 7.31992 48.8942 10.4399 49.7475 13.9066C49.8809 14.4933 49.7475 15.1333 49.3742 15.6133C49.0009 16.0933 48.4142 16.3866 47.8009 16.3866L26.7075 16.4133C23.3207 16.6266 22.4941 17.1866 22.4941 22.12V36.6C22.4941 41.6933 23.1607 42.3333 28.3342 42.3333H44.1208C44.9475 42.3333 45.6942 42.84 45.9875 43.6133C46.2809 44.3867 46.0675 45.2667 45.4542 45.8267C45.1609 46.0667 44.9209 46.3067 44.6275 46.52L33.2142 55.08C30.9209 56.7333 28.0409 57.56 25.1609 57.56ZM25.1609 4.43995C23.9609 4.43995 22.7341 4.59995 21.8541 4.94662L8.57408 9.93328C6.33408 10.7866 4.33408 13.6399 4.33408 16.0666V35.8267C4.33408 38.3333 6.09408 41.8533 8.09408 43.3467L19.5074 51.88C22.5741 54.1467 27.7208 54.1467 30.7875 51.88L38.1742 46.36H28.3075C20.9474 46.36 18.4674 43.9067 18.4674 36.6267V22.1466C18.4674 16.4666 19.8274 12.8666 26.5742 12.4399L28.3075 12.4133H44.7075C43.9075 11.2666 42.8409 10.3599 41.7209 9.93328L28.4675 4.94662C27.5609 4.59995 26.3609 4.43995 25.1609 4.43995Z" fill="url(#paint0_linear_13_28678)"/>
<path d="M55.6676 28.9199H20.4675C19.3742 28.9199 18.4675 28.0133 18.4675 26.9199C18.4675 25.8266 19.3742 24.9199 20.4675 24.9199H55.6676C56.7609 24.9199 57.6676 25.8266 57.6676 26.9199C57.6676 28.0133 56.7609 28.9199 55.6676 28.9199Z" fill="url(#paint1_linear_13_28678)"/>
<path d="M47.8276 46.3332H28.3076C20.9476 46.3332 18.4675 43.8799 18.4675 36.5999V22.1199C18.4675 16.4399 19.8275 12.8398 26.5742 12.4132L28.3076 12.3865H47.8276C55.1876 12.3865 57.6676 14.8399 57.6676 22.1199V36.9199C57.6142 43.9599 55.1342 46.3332 47.8276 46.3332ZM28.3076 16.3865L26.6809 16.4132C23.2942 16.6265 22.4675 17.1865 22.4675 22.1199V36.5999C22.4675 41.6932 23.1342 42.3332 28.3076 42.3332H47.8276C52.9209 42.3332 53.6142 41.6666 53.6676 36.9199V22.1465C53.6676 17.0531 53.0009 16.4132 47.8276 16.4132H28.3076V16.3865Z" fill="url(#paint2_linear_13_28678)"/>
<path d="M30.7347 39.6934H27.1614C26.068 39.6934 25.1614 38.7867 25.1614 37.6934C25.1614 36.6 26.068 35.6934 27.1614 35.6934H30.7347C31.828 35.6934 32.7347 36.6 32.7347 37.6934C32.7347 38.7867 31.8547 39.6934 30.7347 39.6934Z" fill="#F27457"/>
<path d="M45.0547 39.6934H36.3347C35.2414 39.6934 34.3347 38.7867 34.3347 37.6934C34.3347 36.6 35.2414 35.6934 36.3347 35.6934H45.0547C46.1481 35.6934 47.0547 36.6 47.0547 37.6934C47.0547 38.7867 46.1747 39.6934 45.0547 39.6934Z" fill="url(#paint3_linear_13_28678)"/>
<defs>
<linearGradient id="paint0_linear_13_28678" x1="25.0793" y1="0.419922" x2="25.0793" y2="57.56" gradientUnits="userSpaceOnUse">
<stop stop-color="#F27457"/>
<stop offset="1" stop-color="#A08488"/>
</linearGradient>
<linearGradient id="paint1_linear_13_28678" x1="38.0675" y1="24.9199" x2="38.0675" y2="28.9199" gradientUnits="userSpaceOnUse">
<stop stop-color="#F27457"/>
<stop offset="1" stop-color="#A08488"/>
</linearGradient>
<linearGradient id="paint2_linear_13_28678" x1="38.0675" y1="12.3865" x2="38.0675" y2="46.3332" gradientUnits="userSpaceOnUse">
<stop stop-color="#F27457"/>
<stop offset="1" stop-color="#A08488"/>
</linearGradient>
<linearGradient id="paint3_linear_13_28678" x1="40.6947" y1="35.6934" x2="40.6947" y2="39.6934" gradientUnits="userSpaceOnUse">
<stop stop-color="#F27457"/>
<stop offset="1" stop-color="#A08488"/>
</linearGradient>
</defs>
</svg>
