<svg width="91" height="78" viewBox="0 0 91 78" fill="none" xmlns="http://www.w3.org/2000/svg">
<path d="M51.752 27.5415H3.83533C2.12699 27.5415 0.710327 26.1248 0.710327 24.4165C0.710327 22.7082 2.12699 21.2915 3.83533 21.2915H51.752C53.4604 21.2915 54.877 22.7082 54.877 24.4165C54.877 26.1248 53.4604 27.5415 51.752 27.5415Z" fill="#F2FAFA"/>
<path d="M28.8353 60.875H20.502C18.7936 60.875 17.377 59.4583 17.377 57.75C17.377 56.0417 18.7936 54.625 20.502 54.625H28.8353C30.5436 54.625 31.9603 56.0417 31.9603 57.75C31.9603 59.4583 30.5436 60.875 28.8353 60.875Z" fill="#03A6A6"/>
<path d="M55.9187 60.875H39.252C37.5437 60.875 36.127 59.4583 36.127 57.75C36.127 56.0417 37.5437 54.625 39.252 54.625H55.9187C57.627 54.625 59.0437 56.0417 59.0437 57.75C59.0437 59.4583 57.627 60.875 55.9187 60.875Z" fill="#03A6A6"/>
<path d="M68.6687 77.5416H22.3353C5.75199 77.5416 0.710327 72.5416 0.710327 56.1249V21.8749C0.710327 5.45825 5.75199 0.458252 22.3353 0.458252H51.752C53.4604 0.458252 54.877 1.87492 54.877 3.58325C54.877 5.29159 53.4604 6.70825 51.752 6.70825H22.3353C9.25199 6.70825 6.96033 8.95825 6.96033 21.8749V56.0833C6.96033 68.9999 9.25199 71.2499 22.3353 71.2499H68.627C81.7104 71.2499 84.002 68.9999 84.002 56.0833V39.0833C84.002 37.3749 85.4187 35.9583 87.127 35.9583C88.8354 35.9583 90.252 37.3749 90.252 39.0833V56.0833C90.2937 72.5416 85.252 77.5416 68.6687 77.5416Z" fill="#F2FAFA"/>
<path d="M87.1687 18.1665H64.2521C62.5437 18.1665 61.1271 16.7498 61.1271 15.0415C61.1271 13.3332 62.5437 11.9165 64.2521 11.9165H87.1687C88.8771 11.9165 90.2937 13.3332 90.2937 15.0415C90.2937 16.7498 88.8771 18.1665 87.1687 18.1665Z" fill="#03A6A6"/>
<path d="M75.7103 29.6249C74.002 29.6249 72.5853 28.2083 72.5853 26.4999V3.58325C72.5853 1.87492 74.002 0.458252 75.7103 0.458252C77.4187 0.458252 78.8353 1.87492 78.8353 3.58325V26.4999C78.8353 28.2083 77.4187 29.6249 75.7103 29.6249Z" fill="#03A6A6"/>
</svg>
