<svg width="91" height="90" viewBox="0 0 91 90" fill="none" xmlns="http://www.w3.org/2000/svg">
<path d="M58.001 89.7916H33.0011C10.3761 89.7916 0.709473 80.1249 0.709473 57.4999V32.4999C0.709473 9.87492 10.3761 0.208252 33.0011 0.208252H58.001C80.626 0.208252 90.2926 9.87492 90.2926 32.4999V57.4999C90.2926 80.1249 80.626 89.7916 58.001 89.7916ZM33.0011 6.45825C13.7928 6.45825 6.95947 13.2916 6.95947 32.4999V57.4999C6.95947 76.7083 13.7928 83.5416 33.0011 83.5416H58.001C77.2093 83.5416 84.0426 76.7083 84.0426 57.4999V32.4999C84.0426 13.2916 77.2093 6.45825 58.001 6.45825H33.0011Z" fill="url(#paint0_linear_14_40658)"/>
<path d="M45.5018 64C40.9185 64 37.1685 60.25 37.1685 55.6667V49C34.71 46.9584 33.0433 44.0834 32.6267 40.875C32.5433 40.375 32.46 39.6667 32.46 39C32.46 34.9583 34.2933 31.2083 37.5435 28.7083C40.7935 26.2083 44.9601 25.4166 48.9601 26.4583C53.3351 27.6249 56.9601 31.2083 58.0851 35.5833C58.5435 37.2917 58.6685 39.0834 58.3768 40.875C57.9185 44.0417 56.2935 46.9167 53.8351 48.9584V55.625C53.8351 60.25 50.0851 64 45.5018 64ZM45.4601 32.2499C43.9601 32.2499 42.5435 32.7083 41.3351 33.6666C39.6685 34.9583 38.7101 36.9167 38.7101 39C38.7101 39.2917 38.7101 39.625 38.7935 39.875C39.0851 41.9584 40.2101 43.6667 41.9601 44.75L43.4185 45.6667V55.6667C43.4185 56.8334 44.3351 57.75 45.5018 57.75C46.6685 57.75 47.5851 56.8334 47.5851 55.6667V45.6667L49.0435 44.75C50.7518 43.6667 51.9185 41.9584 52.1685 40V39.9167C52.3351 39 52.2935 38.0834 52.0435 37.2084C51.4601 34.9166 49.5851 33.0833 47.3351 32.4999C46.7101 32.3333 46.0851 32.2499 45.4601 32.2499Z" fill="#F2FAFA"/>
<path d="M87.168 37.3333H55.293V43.5833H87.168V37.3333Z" fill="#F2FAFA"/>
<path d="M35.7095 37.3333H3.83447V43.5833H35.7095V37.3333Z" fill="#F2FAFA"/>
<defs>
<linearGradient id="paint0_linear_14_40658" x1="45.5011" y1="89.7916" x2="45.5011" y2="0.208252" gradientUnits="userSpaceOnUse">
<stop stop-color="#B3D4D8"/>
<stop offset="1" stop-color="#DEECE8"/>
</linearGradient>
</defs>
</svg>
