<svg width="58" height="58" viewBox="0 0 58 58" fill="none" xmlns="http://www.w3.org/2000/svg">
<path d="M25.908 33.1066H21.908C18.8413 33.1066 16.3613 30.5466 16.3613 27.3733C16.3613 26.28 17.268 25.3733 18.3613 25.3733C19.4546 25.3733 20.3613 26.28 20.3613 27.3733C20.3613 28.3333 21.0546 29.1066 21.908 29.1066H25.908C26.5213 29.1066 27.0013 28.5466 27.0013 27.8533C27.0013 26.92 26.8413 26.8666 26.228 26.6533L19.8013 24.4133C17.4813 23.6133 16.3346 21.9866 16.3346 19.4533C16.3346 16.5733 18.628 14.2 21.428 14.2H25.428C28.4947 14.2 30.9747 16.76 30.9747 19.9333C30.9747 21.0266 30.068 21.9333 28.9747 21.9333C27.8813 21.9333 26.9747 21.0266 26.9747 19.9333C26.9747 18.9733 26.2813 18.2 25.428 18.2H21.428C20.8146 18.2 20.3346 18.76 20.3346 19.4533C20.3346 20.3866 20.4946 20.44 21.108 20.6533L27.5347 22.8933C29.8547 23.72 30.9747 25.3466 30.9747 27.8533C31.0013 30.76 28.708 33.1066 25.908 33.1066Z" fill="url(#paint0_linear_13_28692)"/>
<path d="M23.668 35.2399C22.5746 35.2399 21.668 34.3333 21.668 33.2399V31.2666C21.668 30.1733 22.5746 29.2666 23.668 29.2666C24.7613 29.2666 25.668 30.1733 25.668 31.2666V33.2399C25.668 34.3599 24.7613 35.2399 23.668 35.2399Z" fill="url(#paint1_linear_13_28692)"/>
<path d="M23.668 18.1733C22.5746 18.1733 21.668 17.2666 21.668 16.1733V14.0933C21.668 12.9999 22.5746 12.0933 23.668 12.0933C24.7613 12.0933 25.668 12.9999 25.668 14.0933V16.1733C25.668 17.2666 24.7613 18.1733 23.668 18.1733Z" fill="url(#paint2_linear_13_28692)"/>
<path d="M23.6413 46.92C10.788 46.92 0.334625 36.4667 0.334625 23.6133C0.334625 10.76 10.788 0.306641 23.6413 0.306641C36.4947 0.306641 46.948 10.76 46.948 23.6133C46.948 36.4667 36.468 46.92 23.6413 46.92ZM23.6413 4.33331C13.0013 4.33331 4.33463 13 4.33463 23.64C4.33463 34.28 13.0013 42.92 23.6413 42.92C34.2813 42.92 42.948 34.2533 42.948 23.6133C42.948 12.9733 34.2813 4.33331 23.6413 4.33331Z" fill="#F27457"/>
<path d="M42.388 57.5867C37.4547 57.5867 32.8147 55.1867 29.9613 51.1334C29.3213 50.2267 29.5347 48.9734 30.4413 48.3334C31.348 47.6934 32.6013 47.9067 33.2413 48.8134C35.348 51.8 38.7613 53.56 42.388 53.56C48.5747 53.56 53.588 48.5467 53.588 42.36C53.588 38.76 51.828 35.3467 48.8947 33.24C47.988 32.6 47.8013 31.3467 48.4413 30.44C49.0813 29.5334 50.3347 29.3467 51.2413 29.9867C55.2147 32.84 57.588 37.4534 57.588 42.36C57.588 50.7867 50.788 57.5867 42.388 57.5867Z" fill="url(#paint3_linear_13_28692)"/>
<defs>
<linearGradient id="paint0_linear_13_28692" x1="23.6548" y1="14.2" x2="23.6548" y2="33.1066" gradientUnits="userSpaceOnUse">
<stop stop-color="#F27457"/>
<stop offset="1" stop-color="#A08488"/>
</linearGradient>
<linearGradient id="paint1_linear_13_28692" x1="23.668" y1="29.2666" x2="23.668" y2="35.2399" gradientUnits="userSpaceOnUse">
<stop stop-color="#F27457"/>
<stop offset="1" stop-color="#A08488"/>
</linearGradient>
<linearGradient id="paint2_linear_13_28692" x1="23.668" y1="12.0933" x2="23.668" y2="18.1733" gradientUnits="userSpaceOnUse">
<stop stop-color="#F27457"/>
<stop offset="1" stop-color="#A08488"/>
</linearGradient>
<linearGradient id="paint3_linear_13_28692" x1="43.5902" y1="29.6086" x2="43.5902" y2="57.5867" gradientUnits="userSpaceOnUse">
<stop stop-color="#F27457"/>
<stop offset="1" stop-color="#A08488"/>
</linearGradient>
</defs>
</svg>
