<svg width="101" height="100" viewBox="0 0 101 100" fill="none" xmlns="http://www.w3.org/2000/svg">
<path d="M79.6663 55.6665H8.83301C7.12467 55.6665 5.70801 54.2498 5.70801 52.5415C5.70801 50.8332 7.12467 49.4165 8.83301 49.4165H79.6663C81.3747 49.4165 82.7913 50.8332 82.7913 52.5415C82.7913 54.2498 81.3747 55.6665 79.6663 55.6665Z" fill="#03A6A6"/>
<path d="M63.9163 90.6249H24.5831C10.2915 90.6249 5.70801 86.0832 5.70801 71.9582V42.8332C5.70801 31.6248 8.24976 24.9998 21.1664 24.2498C22.2498 24.2082 23.3748 24.1665 24.5831 24.1665H63.9163C78.208 24.1665 82.7913 28.7082 82.7913 42.8332V72.6249C82.6247 86.2499 78.0414 90.6249 63.9163 90.6249ZM24.5831 30.4165C23.4581 30.4165 22.4165 30.4582 21.4581 30.4998C13.9998 30.9582 11.958 32.5415 11.958 42.8332V71.9582C11.958 82.6249 13.7081 84.3749 24.5831 84.3749H63.9163C74.6663 84.3749 76.4163 82.7082 76.5413 72.5832V42.8332C76.5413 32.1665 74.7913 30.4165 63.9163 30.4165H24.5831Z" fill="#F2FAFA"/>
<path d="M79.6663 75.75C78.8747 75.75 78.083 75.4583 77.5413 74.9167C76.9163 74.3333 76.5413 73.5 76.5413 72.625V42.8333C76.5413 32.1666 74.7913 30.4166 63.9163 30.4166H24.5831C23.4581 30.4166 22.4165 30.4583 21.4581 30.5C20.6248 30.5416 19.7913 30.2083 19.1663 29.625C18.5413 29.0417 18.208 28.2083 18.208 27.3333C18.3747 13.75 22.9581 9.375 37.0831 9.375H76.4163C90.708 9.375 95.2913 13.9167 95.2913 28.0417V57.1667C95.2913 68.375 92.7497 75 79.833 75.75C79.7914 75.75 79.708 75.75 79.6663 75.75ZM24.5831 24.1666H63.9163C78.208 24.1666 82.7913 28.7083 82.7913 42.8333V69.1667C87.6247 68.2917 89.0413 65.7917 89.0413 57.1667V28.0417C89.0413 17.375 87.2913 15.625 76.4163 15.625H37.0831C27.5831 15.625 25.1248 16.9166 24.5831 24.1666Z" fill="#F2FAFA"/>
<path d="M29.5008 77.3335H22.334C20.6257 77.3335 19.209 75.9168 19.209 74.2085C19.209 72.5002 20.6257 71.0835 22.334 71.0835H29.5008C31.2092 71.0835 32.6258 72.5002 32.6258 74.2085C32.6258 75.9168 31.2508 77.3335 29.5008 77.3335Z" fill="#03A6A6"/>
<path d="M52.7905 77.3335H38.457C36.7487 77.3335 35.332 75.9168 35.332 74.2085C35.332 72.5002 36.7487 71.0835 38.457 71.0835H52.7905C54.4989 71.0835 55.9155 72.5002 55.9155 74.2085C55.9155 75.9168 54.5405 77.3335 52.7905 77.3335Z" fill="#F2FAFA"/>
</svg>
