<svg width="64" height="64" viewBox="0 0 64 64" fill="none" xmlns="http://www.w3.org/2000/svg">
<path d="M56.0007 8.889C54.5304 8.889 53.334 7.69255 53.334 6.22233C53.334 4.75211 54.5304 3.55566 56.0007 3.55566C57.4709 3.55566 58.6673 4.75211 58.6673 6.22233C58.6673 7.69255 57.4709 8.889 56.0007 8.889ZM56.0007 5.33344C55.5118 5.33344 55.1118 5.73344 55.1118 6.22233C55.1118 6.71122 55.5118 7.11122 56.0007 7.11122C56.4895 7.11122 56.8895 6.71122 56.8895 6.22233C56.8895 5.73344 56.4895 5.33344 56.0007 5.33344Z" fill="#F27457"/>
<path d="M30.6667 17.7779H22.6667C20.9511 17.7779 19.5556 16.3823 19.5556 14.6667C19.5556 13.9325 18.9564 13.3334 18.2222 13.3334H17.3333C16.5973 13.3334 16 12.7361 16 12.0001C16 11.2641 16.5973 10.6667 17.3333 10.6667H18.2222C20.4267 10.6667 22.2222 12.4623 22.2222 14.6667C22.2222 14.9121 22.4213 15.1112 22.6667 15.1112H30.6667C30.912 15.1112 31.1111 14.9121 31.1111 14.6667C31.1111 12.4623 32.9067 10.6667 35.1111 10.6667H36C36.736 10.6667 37.3333 11.2641 37.3333 12.0001C37.3333 12.7361 36.736 13.3334 36 13.3334H35.1111C34.3769 13.3334 33.7778 13.9325 33.7778 14.6667C33.7778 16.3823 32.3822 17.7779 30.6667 17.7779Z" fill="url(#paint0_linear_14_40865)"/>
<path d="M36.0009 53.3334H17.3342C14.6373 53.3334 12.4453 51.1414 12.4453 48.4445V15.5556C12.4453 12.8587 14.6373 10.6667 17.3342 10.6667H36.0009C38.6978 10.6667 40.8898 12.8587 40.8898 15.5556V18.2223H38.2231V15.5556C38.2231 14.3307 37.2258 13.3334 36.0009 13.3334H17.3342C16.1093 13.3334 15.112 14.3307 15.112 15.5556V48.4445C15.112 49.6694 16.1093 50.6668 17.3342 50.6668H36.0009C37.2258 50.6668 38.2231 49.6694 38.2231 48.4445V45.8881H40.8898V48.4445C40.8898 51.1414 38.6978 53.3334 36.0009 53.3334Z" fill="url(#paint1_linear_14_40865)"/>
<path d="M46.6665 40.8889H29.7776C27.0807 40.8889 24.8887 38.6969 24.8887 36V28C24.8887 25.3031 27.0807 23.1111 29.7776 23.1111H46.6665C49.3633 23.1111 51.5553 25.3031 51.5553 28V36C51.5553 38.6969 49.3633 40.8889 46.6665 40.8889ZM29.7776 25.7778C28.5527 25.7778 27.5553 26.7751 27.5553 28V36C27.5553 37.2249 28.5527 38.2222 29.7776 38.2222H46.6665C47.8913 38.2222 48.8887 37.2249 48.8887 36V28C48.8887 26.7751 47.8913 25.7778 46.6665 25.7778H29.7776Z" fill="url(#paint2_linear_14_40865)"/>
<path d="M50.222 31.111H26.222C25.486 31.111 24.8887 30.5137 24.8887 29.7777C24.8887 29.0417 25.486 28.4443 26.222 28.4443H50.222C50.958 28.4443 51.5553 29.0417 51.5553 29.7777C51.5553 30.5137 50.958 31.111 50.222 31.111Z" fill="url(#paint3_linear_14_40865)"/>
<defs>
<linearGradient id="paint0_linear_14_40865" x1="26.6667" y1="17.7779" x2="26.6667" y2="10.6667" gradientUnits="userSpaceOnUse">
<stop stop-color="#B3D4D8"/>
<stop offset="1" stop-color="#DEECE8"/>
</linearGradient>
<linearGradient id="paint1_linear_14_40865" x1="26.6675" y1="53.3334" x2="26.6675" y2="10.6667" gradientUnits="userSpaceOnUse">
<stop stop-color="#B3D4D8"/>
<stop offset="1" stop-color="#DEECE8"/>
</linearGradient>
<linearGradient id="paint2_linear_14_40865" x1="38.222" y1="40.8889" x2="38.222" y2="23.1111" gradientUnits="userSpaceOnUse">
<stop stop-color="#B3D4D8"/>
<stop offset="1" stop-color="#DEECE8"/>
</linearGradient>
<linearGradient id="paint3_linear_14_40865" x1="38.222" y1="31.111" x2="38.222" y2="28.4443" gradientUnits="userSpaceOnUse">
<stop stop-color="#B3D4D8"/>
<stop offset="1" stop-color="#DEECE8"/>
</linearGradient>
</defs>
</svg>
