<svg width="64" height="64" viewBox="0 0 64 64" fill="none" xmlns="http://www.w3.org/2000/svg">
<path d="M8.00065 8.889C6.53043 8.889 5.33398 7.69255 5.33398 6.22233C5.33398 4.75211 6.53043 3.55566 8.00065 3.55566C9.47087 3.55566 10.6673 4.75211 10.6673 6.22233C10.6673 7.69255 9.47087 8.889 8.00065 8.889ZM8.00065 5.33344C7.50998 5.33344 7.11176 5.73344 7.11176 6.22233C7.11176 6.71122 7.50998 7.11122 8.00065 7.11122C8.49132 7.11122 8.88954 6.71122 8.88954 6.22233C8.88954 5.73344 8.49132 5.33344 8.00065 5.33344Z" fill="#F27457"/>
<path d="M36.4444 33.7778C33.9947 33.7778 32 31.7849 32 29.3334C32 26.8818 33.9947 24.8889 36.4444 24.8889C38.8942 24.8889 40.8889 26.8818 40.8889 29.3334C40.8889 31.7849 38.8942 33.7778 36.4444 33.7778ZM36.4444 27.5556C35.4649 27.5556 34.6667 28.352 34.6667 29.3334C34.6667 30.3147 35.4649 31.1111 36.4444 31.1111C37.424 31.1111 38.2222 30.3147 38.2222 29.3334C38.2222 28.352 37.424 27.5556 36.4444 27.5556Z" fill="url(#paint0_linear_14_40858)"/>
<path d="M24.8887 28H28.4442V30.6667H24.8887V28Z" fill="url(#paint1_linear_14_40858)"/>
<path d="M44.4453 28H48.0009V30.6667H44.4453V28Z" fill="url(#paint2_linear_14_40858)"/>
<path d="M48.4436 40.8889H30.3102C29.5742 40.8889 28.9769 40.2916 28.9769 39.5556C28.9769 38.8196 29.5742 38.2223 30.3102 38.2223H48.4436C49.6685 38.2223 50.6658 37.2249 50.6658 36.0001V22.6667C50.6658 21.4418 49.6685 20.4445 48.4436 20.4445H24.4436C23.2187 20.4445 22.2214 21.4418 22.2214 22.6667V34.8143C22.2214 35.5503 21.624 36.1476 20.888 36.1476C20.152 36.1476 19.5547 35.5503 19.5547 34.8143V22.6667C19.5547 19.9698 21.7467 17.7778 24.4436 17.7778H48.4436C51.1405 17.7778 53.3325 19.9698 53.3325 22.6667V36.0001C53.3325 38.6969 51.1405 40.8889 48.4436 40.8889Z" fill="url(#paint3_linear_14_40858)"/>
<path d="M10.8808 46.4053L10.4844 43.7689L20.6159 42.2489C22.5644 41.9697 24.3973 41.3191 26.0737 40.3129L30.5502 37.6249C31.1706 37.2533 31.5564 36.5724 31.5564 35.8489C31.5564 34.7058 30.6266 33.7778 29.4835 33.7778C28.3742 33.7778 27.2915 33.9858 26.2604 34.3982L17.9244 37.7333L16.9342 35.2569L25.2702 31.9217C26.6177 31.3831 28.0346 31.1111 29.4835 31.1111C32.0968 31.1111 34.223 33.2355 34.223 35.8489C34.223 37.5058 33.3413 39.0631 31.9208 39.9129L27.4462 42.5973C25.4622 43.7884 23.295 44.56 21.0017 44.8853L10.8808 46.4053Z" fill="url(#paint4_linear_14_40858)"/>
<path d="M38.1766 46.2222C36.9197 46.2222 35.7784 45.6373 35.0442 44.6186C34.3082 43.5999 34.1162 42.3306 34.5126 41.1377L35.1793 39.1342C35.3606 38.5902 35.8708 38.2222 36.4433 38.2222H41.7766C42.205 38.2222 42.6068 38.4284 42.8575 38.7768C43.1082 39.1253 43.1757 39.5715 43.0406 39.9786L41.8388 43.5822C41.3162 45.1608 39.8442 46.2222 38.1766 46.2222ZM37.4068 40.8888L37.0424 41.9804C36.9197 42.3502 36.9784 42.7431 37.2077 43.0577C37.7375 43.7937 39.0264 43.5946 39.3126 42.7377L39.9277 40.8888H37.4068Z" fill="url(#paint5_linear_14_40858)"/>
<path d="M32.8426 46.2222C31.5857 46.2222 30.4444 45.6373 29.7102 44.6186C28.9742 43.5999 28.7822 42.3306 29.1786 41.1377L29.8453 39.1342C30.0266 38.5902 30.5368 38.2222 31.1093 38.2222H36.4426C36.8711 38.2222 37.2728 38.4284 37.5235 38.7768C37.7742 39.1253 37.8417 39.5715 37.7066 39.9786L36.5048 43.5822C35.9822 45.1608 34.5102 46.2222 32.8426 46.2222ZM32.0728 40.8888L31.7084 41.9804C31.5857 42.3502 31.6444 42.7431 31.8737 43.0577C32.4017 43.7937 33.6924 43.5946 33.9786 42.7377L34.5937 40.8888H32.0728Z" fill="url(#paint6_linear_14_40858)"/>
<path d="M27.5093 46.2223C25.5484 46.2223 23.8986 44.7557 23.6693 42.809C23.5839 42.0766 24.1066 41.4152 24.8391 41.3281C25.5608 41.2552 26.2328 41.7655 26.3199 42.4961C26.3804 43.0099 26.8177 43.5557 27.5093 43.5557C28.0266 43.5557 28.4817 43.2268 28.6453 42.7397L29.8471 39.1343C30.0782 38.4339 30.8337 38.0606 31.5342 38.2899C32.2328 38.5246 32.6097 39.2783 32.3768 39.977L31.1751 43.5806C30.6488 45.161 29.1768 46.2223 27.5093 46.2223Z" fill="url(#paint7_linear_14_40858)"/>
<path d="M12.3691 28.0712L10.1504 26.5921L11.4873 24.5868C13.5868 21.4366 17.1015 19.5557 20.8882 19.5557H22.2215V22.2223H20.8882C17.9957 22.2223 15.3095 23.6606 13.7059 26.0659L12.3691 28.0712Z" fill="url(#paint8_linear_14_40858)"/>
<defs>
<linearGradient id="paint0_linear_14_40858" x1="36.4444" y1="33.7778" x2="36.4444" y2="24.8889" gradientUnits="userSpaceOnUse">
<stop stop-color="#B3D4D8"/>
<stop offset="1" stop-color="#DEECE8"/>
</linearGradient>
<linearGradient id="paint1_linear_14_40858" x1="26.6664" y1="30.6667" x2="26.6664" y2="28" gradientUnits="userSpaceOnUse">
<stop stop-color="#B3D4D8"/>
<stop offset="1" stop-color="#DEECE8"/>
</linearGradient>
<linearGradient id="paint2_linear_14_40858" x1="46.2231" y1="30.6667" x2="46.2231" y2="28" gradientUnits="userSpaceOnUse">
<stop stop-color="#B3D4D8"/>
<stop offset="1" stop-color="#DEECE8"/>
</linearGradient>
<linearGradient id="paint3_linear_14_40858" x1="36.4436" y1="40.8889" x2="36.4436" y2="17.7778" gradientUnits="userSpaceOnUse">
<stop stop-color="#B3D4D8"/>
<stop offset="1" stop-color="#DEECE8"/>
</linearGradient>
<linearGradient id="paint4_linear_14_40858" x1="22.3537" y1="46.4053" x2="22.3537" y2="31.1111" gradientUnits="userSpaceOnUse">
<stop stop-color="#B3D4D8"/>
<stop offset="1" stop-color="#DEECE8"/>
</linearGradient>
<linearGradient id="paint5_linear_14_40858" x1="38.7097" y1="46.2222" x2="38.7097" y2="38.2222" gradientUnits="userSpaceOnUse">
<stop stop-color="#B3D4D8"/>
<stop offset="1" stop-color="#DEECE8"/>
</linearGradient>
<linearGradient id="paint6_linear_14_40858" x1="33.3757" y1="46.2222" x2="33.3757" y2="38.2222" gradientUnits="userSpaceOnUse">
<stop stop-color="#B3D4D8"/>
<stop offset="1" stop-color="#DEECE8"/>
</linearGradient>
<linearGradient id="paint7_linear_14_40858" x1="28.0529" y1="46.2223" x2="28.0529" y2="38.2224" gradientUnits="userSpaceOnUse">
<stop stop-color="#B3D4D8"/>
<stop offset="1" stop-color="#DEECE8"/>
</linearGradient>
<linearGradient id="paint8_linear_14_40858" x1="16.1859" y1="28.0712" x2="16.1859" y2="19.5557" gradientUnits="userSpaceOnUse">
<stop stop-color="#B3D4D8"/>
<stop offset="1" stop-color="#DEECE8"/>
</linearGradient>
</defs>
</svg>
