<svg width="64" height="64" viewBox="0 0 64 64" fill="none" xmlns="http://www.w3.org/2000/svg">
<path d="M49.6055 6.4292L50.8625 5.17212L53.3767 7.68628L52.1196 8.94336L49.6055 6.4292Z" fill="#F27457"/>
<path d="M56.833 13.6577L58.0901 12.4006L60.6042 14.9148L59.3472 16.1719L56.833 13.6577Z" fill="#F27457"/>
<path d="M56.5215 7.68579L59.0356 5.17164L60.2927 6.42871L57.7786 8.94287L56.5215 7.68579Z" fill="#F27457"/>
<path d="M30.6667 17.7779H22.6667C20.9511 17.7779 19.5556 16.3823 19.5556 14.6667C19.5556 13.9325 18.9564 13.3334 18.2222 13.3334H17.3333C16.5973 13.3334 16 12.7361 16 12.0001C16 11.2641 16.5973 10.6667 17.3333 10.6667H18.2222C20.4267 10.6667 22.2222 12.4623 22.2222 14.6667C22.2222 14.9121 22.4213 15.1112 22.6667 15.1112H30.6667C30.912 15.1112 31.1111 14.9121 31.1111 14.6667C31.1111 12.4623 32.9067 10.6667 35.1111 10.6667H36C36.736 10.6667 37.3333 11.2641 37.3333 12.0001C37.3333 12.7361 36.736 13.3334 36 13.3334H35.1111C34.3769 13.3334 33.7778 13.9325 33.7778 14.6667C33.7778 16.3823 32.3822 17.7779 30.6667 17.7779Z" fill="url(#paint0_linear_14_40851)"/>
<path d="M35.9999 53.3334H17.3332C14.6363 53.3334 12.4443 51.1414 12.4443 48.4445V15.5556C12.4443 12.8587 14.6363 10.6667 17.3332 10.6667H35.9999C38.6968 10.6667 40.8888 12.8587 40.8888 15.5556V16.4445H38.2221V15.5556C38.2221 14.3307 37.2248 13.3334 35.9999 13.3334H17.3332C16.1083 13.3334 15.111 14.3307 15.111 15.5556V48.4445C15.111 49.6694 16.1083 50.6668 17.3332 50.6668H35.9999C37.2248 50.6668 38.2221 49.6694 38.2221 48.4445V47.5556H40.8888V48.4445C40.8888 51.1414 38.6968 53.3334 35.9999 53.3334Z" fill="url(#paint1_linear_14_40851)"/>
<path d="M38.667 34.793H41.3337V39.1112H38.667V34.793Z" fill="url(#paint2_linear_14_40851)"/>
<path d="M40.3697 37.4596H36.4443V34.793H40.3697C40.615 34.793 40.8888 34.4943 40.8888 34.0641C40.8888 33.6339 40.615 33.3334 40.3697 33.3334H39.6301C37.8737 33.3334 36.4443 31.8099 36.4443 29.9361C36.4443 28.0623 37.8737 26.5405 39.6301 26.5405H43.5554V29.2072H39.6301C39.3848 29.2072 39.111 29.5059 39.111 29.9361C39.111 30.3663 39.3848 30.6667 39.6301 30.6667H40.3697C42.1261 30.6667 43.5554 32.1903 43.5554 34.0641C43.5554 35.9379 42.1261 37.4596 40.3697 37.4596Z" fill="url(#paint3_linear_14_40851)"/>
<path d="M38.667 24.8889H41.3337V29.2071H38.667V24.8889Z" fill="url(#paint4_linear_14_40851)"/>
<path d="M39.9999 43.5554C33.6283 43.5554 28.4443 38.3714 28.4443 31.9999C28.4443 25.6283 33.6283 20.4443 39.9999 20.4443C46.3714 20.4443 51.5554 25.6283 51.5554 31.9999C51.5554 38.3714 46.3714 43.5554 39.9999 43.5554ZM39.9999 23.111C35.0986 23.111 31.111 27.0986 31.111 31.9999C31.111 36.9012 35.0986 40.8888 39.9999 40.8888C44.9012 40.8888 48.8888 36.9012 48.8888 31.9999C48.8888 27.0986 44.9012 23.111 39.9999 23.111Z" fill="url(#paint5_linear_14_40851)"/>
<defs>
<linearGradient id="paint0_linear_14_40851" x1="26.6667" y1="17.7779" x2="26.6667" y2="10.6667" gradientUnits="userSpaceOnUse">
<stop stop-color="#B3D4D8"/>
<stop offset="1" stop-color="#DEECE8"/>
</linearGradient>
<linearGradient id="paint1_linear_14_40851" x1="26.6666" y1="53.3334" x2="26.6666" y2="10.6667" gradientUnits="userSpaceOnUse">
<stop stop-color="#B3D4D8"/>
<stop offset="1" stop-color="#DEECE8"/>
</linearGradient>
<linearGradient id="paint2_linear_14_40851" x1="40.0003" y1="39.1112" x2="40.0003" y2="34.793" gradientUnits="userSpaceOnUse">
<stop stop-color="#B3D4D8"/>
<stop offset="1" stop-color="#DEECE8"/>
</linearGradient>
<linearGradient id="paint3_linear_14_40851" x1="39.9999" y1="37.4596" x2="39.9999" y2="26.5405" gradientUnits="userSpaceOnUse">
<stop stop-color="#B3D4D8"/>
<stop offset="1" stop-color="#DEECE8"/>
</linearGradient>
<linearGradient id="paint4_linear_14_40851" x1="40.0003" y1="29.2071" x2="40.0003" y2="24.8889" gradientUnits="userSpaceOnUse">
<stop stop-color="#B3D4D8"/>
<stop offset="1" stop-color="#DEECE8"/>
</linearGradient>
<linearGradient id="paint5_linear_14_40851" x1="39.9999" y1="43.5554" x2="39.9999" y2="20.4443" gradientUnits="userSpaceOnUse">
<stop stop-color="#B3D4D8"/>
<stop offset="1" stop-color="#DEECE8"/>
</linearGradient>
</defs>
</svg>
