<svg width="64" height="64" viewBox="0 0 64 64" fill="none" xmlns="http://www.w3.org/2000/svg">
<path d="M10.4814 44.3457C9.9747 44.3457 9.46804 44.1591 9.06804 43.7591C8.2947 42.9857 8.2947 41.7057 9.06804 40.9324L40.9347 9.06584C41.7081 8.29251 42.9881 8.29251 43.7614 9.06584C44.5347 9.83917 44.5347 11.1192 43.7614 11.8925L11.8947 43.7857C11.5214 44.1591 10.988 44.3457 10.4814 44.3457Z" fill="url(#paint0_linear_13_28743)"/>
<path d="M29.6015 50.7456C29.0948 50.7456 28.5882 50.5589 28.1882 50.1589C27.4148 49.3856 27.4148 48.1056 28.1882 47.3322L31.3882 44.1322C32.1615 43.3589 33.4415 43.3589 34.2148 44.1322C34.9882 44.9056 34.9882 46.1856 34.2148 46.9589L31.0148 50.1589C30.6415 50.5322 30.1348 50.7456 29.6015 50.7456Z" fill="url(#paint1_linear_13_28743)"/>
<path d="M36.7748 43.5725C36.2682 43.5725 35.7615 43.3858 35.3615 42.9858C34.5882 42.2125 34.5882 40.9325 35.3615 40.1591L41.7348 33.7858C42.5082 33.0125 43.7882 33.0125 44.5615 33.7858C45.3348 34.5591 45.3348 35.8391 44.5615 36.6125L38.1882 42.9858C37.8148 43.3591 37.2815 43.5725 36.7748 43.5725Z" fill="url(#paint2_linear_13_28743)"/>
<path d="M29.6013 60.6657C26.988 60.6657 24.3747 59.0657 21.2013 55.8924L8.10799 42.799C1.73465 36.4257 1.76132 32.319 8.18799 25.8925L25.8947 8.18579C32.3214 1.75912 36.428 1.73245 42.8014 8.10579L55.8947 21.1991C62.268 27.5724 62.2414 31.679 55.8147 38.1057L38.108 55.8124C34.8813 59.039 32.2414 60.6657 29.6013 60.6657ZM34.4014 7.33246C33.0147 7.33246 31.2547 8.47913 28.7213 11.0125L11.0147 28.719C8.48132 31.2524 7.33465 33.0124 7.33465 34.3724C7.33465 35.759 8.40132 37.439 10.9347 39.9724L24.028 53.0657C26.5613 55.599 28.2147 56.6657 29.6013 56.6657H29.628C31.0147 56.6657 32.748 55.519 35.2813 52.9857L52.988 35.279C55.5214 32.7457 56.668 30.9857 56.668 29.6257C56.668 28.239 55.6013 26.5591 53.068 24.0258L39.9747 10.9325C37.468 8.39913 35.788 7.33246 34.4014 7.33246Z" fill="#F27457"/>
<path d="M58.6681 60.6658H5.33472C4.24138 60.6658 3.33472 59.7591 3.33472 58.6658C3.33472 57.5724 4.24138 56.6658 5.33472 56.6658H58.6681C59.7614 56.6658 60.6681 57.5724 60.6681 58.6658C60.6681 59.7591 59.7614 60.6658 58.6681 60.6658Z" fill="#F27457"/>
<defs>
<linearGradient id="paint0_linear_13_28743" x1="26.4147" y1="8.48584" x2="26.4147" y2="44.3457" gradientUnits="userSpaceOnUse">
<stop stop-color="#F27457"/>
<stop offset="1" stop-color="#A08488"/>
</linearGradient>
<linearGradient id="paint1_linear_13_28743" x1="31.2015" y1="43.5522" x2="31.2015" y2="50.7456" gradientUnits="userSpaceOnUse">
<stop stop-color="#F27457"/>
<stop offset="1" stop-color="#A08488"/>
</linearGradient>
<linearGradient id="paint2_linear_13_28743" x1="39.9615" y1="33.2058" x2="39.9615" y2="43.5725" gradientUnits="userSpaceOnUse">
<stop stop-color="#F27457"/>
<stop offset="1" stop-color="#A08488"/>
</linearGradient>
</defs>
</svg>
