<svg width="64" height="64" viewBox="0 0 64 64" fill="none" xmlns="http://www.w3.org/2000/svg">
<path d="M45.3333 56.6656H18.6666C8.93325 56.6656 3.33325 51.0656 3.33325 41.3323V22.6656C3.33325 12.9323 8.93325 7.33228 18.6666 7.33228H45.3333C55.0666 7.33228 60.6666 12.9323 60.6666 22.6656V41.3323C60.6666 51.0656 55.0666 56.6656 45.3333 56.6656ZM18.6666 11.3323C11.0399 11.3323 7.33325 15.0389 7.33325 22.6656V41.3323C7.33325 48.9589 11.0399 52.6656 18.6666 52.6656H45.3333C52.9599 52.6656 56.6666 48.9589 56.6666 41.3323V22.6656C56.6666 15.0389 52.9599 11.3323 45.3333 11.3323H18.6666Z" fill="url(#paint0_linear_13_28749)"/>
<path d="M32 41.999C26.48 41.999 22 37.519 22 31.999C22 26.479 26.48 21.999 32 21.999C37.52 21.999 42 26.479 42 31.999C42 37.519 37.52 41.999 32 41.999ZM32 25.999C28.6933 25.999 26 28.6924 26 31.999C26 35.3057 28.6933 37.999 32 37.999C35.3067 37.999 38 35.3057 38 31.999C38 28.6924 35.3067 25.999 32 25.999Z" fill="url(#paint1_linear_13_28749)"/>
<path d="M14.6665 40.6656C13.5732 40.6656 12.6665 39.7589 12.6665 38.6656V25.3323C12.6665 24.2389 13.5732 23.3323 14.6665 23.3323C15.7598 23.3323 16.6665 24.2389 16.6665 25.3323V38.6656C16.6665 39.7589 15.7598 40.6656 14.6665 40.6656Z" fill="url(#paint2_linear_13_28749)"/>
<path d="M49.3333 40.6656C48.2399 40.6656 47.3333 39.7589 47.3333 38.6656V25.3323C47.3333 24.2389 48.2399 23.3323 49.3333 23.3323C50.4266 23.3323 51.3333 24.2389 51.3333 25.3323V38.6656C51.3333 39.7589 50.4266 40.6656 49.3333 40.6656Z" fill="#F27457"/>
<defs>
<linearGradient id="paint0_linear_13_28749" x1="31.9999" y1="7.33228" x2="31.9999" y2="56.6656" gradientUnits="userSpaceOnUse">
<stop stop-color="#F27457"/>
<stop offset="1" stop-color="#A08488"/>
</linearGradient>
<linearGradient id="paint1_linear_13_28749" x1="32" y1="21.999" x2="32" y2="41.999" gradientUnits="userSpaceOnUse">
<stop stop-color="#F27457"/>
<stop offset="1" stop-color="#A08488"/>
</linearGradient>
<linearGradient id="paint2_linear_13_28749" x1="14.6665" y1="23.3323" x2="14.6665" y2="40.6656" gradientUnits="userSpaceOnUse">
<stop stop-color="#F27457"/>
<stop offset="1" stop-color="#A08488"/>
</linearGradient>
</defs>
</svg>
