<svg width="64" height="64" viewBox="0 0 64 64" fill="none" xmlns="http://www.w3.org/2000/svg">
<path d="M44.5081 60.6657H19.4947C8.3747 60.6657 4.98804 57.2791 4.98804 46.1591V44.9324C4.98804 43.8391 5.8947 42.9324 6.98804 42.9324C9.3347 42.9324 11.2547 41.0124 11.2547 38.6657C11.2547 36.3191 9.3347 34.3991 6.98804 34.3991C5.8947 34.3991 4.98804 33.4924 4.98804 32.3991V31.1724C4.98804 20.0524 8.3747 16.6658 19.4947 16.6658H44.5081C55.6281 16.6658 59.0148 20.0524 59.0148 31.1724V33.6791C59.0148 34.7724 58.1081 35.6791 57.0148 35.6791C54.6681 35.6791 52.7481 37.5991 52.7481 39.9457C52.7481 42.2924 54.6681 44.1857 57.0148 44.1857C58.1081 44.1857 59.0148 45.0924 59.0148 46.1857C58.9881 57.2791 55.6014 60.6657 44.5081 60.6657ZM9.0147 46.6924C9.06804 55.1724 10.748 56.6657 19.5214 56.6657H44.5348C52.8548 56.6657 54.7748 55.3057 55.0148 47.9191C51.4414 47.0124 48.7748 43.7857 48.7748 39.9191C48.7748 36.0524 51.4414 32.7991 55.0414 31.8924V31.1457C55.0414 22.2124 53.4681 20.6391 44.5348 20.6391H19.4947C10.748 20.6391 9.06804 22.1591 8.98804 30.6124C12.588 31.5191 15.2547 34.7724 15.2547 38.6391C15.2547 42.5057 12.588 45.7857 9.0147 46.6924Z" fill="url(#paint0_linear_13_28755)"/>
<path d="M26.668 27.3324C25.5746 27.3324 24.668 26.4258 24.668 25.3324V18.6658C24.668 17.5724 25.5746 16.6658 26.668 16.6658C27.7614 16.6658 28.668 17.5724 28.668 18.6658V25.3324C28.668 26.4258 27.7614 27.3324 26.668 27.3324Z" fill="url(#paint1_linear_13_28755)"/>
<path d="M26.668 45.119C25.5746 45.119 24.668 44.2123 24.668 43.119V34.239C24.668 33.1457 25.5746 32.239 26.668 32.239C27.7614 32.239 28.668 33.1457 28.668 34.239V43.119C28.668 44.2123 27.7614 45.119 26.668 45.119Z" fill="url(#paint2_linear_13_28755)"/>
<path d="M26.668 60.6657C25.5746 60.6657 24.668 59.759 24.668 58.6657V51.999C24.668 50.9057 25.5746 49.999 26.668 49.999C27.7614 49.999 28.668 50.9057 28.668 51.999V58.6657C28.668 59.759 27.7614 60.6657 26.668 60.6657Z" fill="#F27457"/>
<path d="M43.548 20.6657H19.3079C18.5079 20.6657 17.7613 20.1857 17.4679 19.4391C17.1746 18.6924 17.3346 17.8124 17.8946 17.2524L25.7079 9.43905C32.908 2.23907 37.308 2.23907 44.4813 9.43905L46.0813 11.0391C46.4547 11.4124 46.668 11.9191 46.668 12.4524C46.668 12.9857 46.4547 13.4924 46.0813 13.8657C45.0147 14.9324 44.7213 16.5057 45.3347 17.8657C45.628 18.4791 45.5747 19.1991 45.2013 19.7857C44.8547 20.3191 44.2147 20.6657 43.548 20.6657ZM24.1346 16.6657H41.0147C40.9613 15.2524 41.308 13.8391 42.028 12.6124L41.6813 12.2657C36.108 6.69239 34.1347 6.69239 28.5613 12.2657L24.1346 16.6657Z" fill="url(#paint3_linear_13_28755)"/>
<defs>
<linearGradient id="paint0_linear_13_28755" x1="32.0014" y1="16.6658" x2="32.0014" y2="60.6657" gradientUnits="userSpaceOnUse">
<stop stop-color="#F27457"/>
<stop offset="1" stop-color="#A08488"/>
</linearGradient>
<linearGradient id="paint1_linear_13_28755" x1="26.668" y1="16.6658" x2="26.668" y2="27.3324" gradientUnits="userSpaceOnUse">
<stop stop-color="#F27457"/>
<stop offset="1" stop-color="#A08488"/>
</linearGradient>
<linearGradient id="paint2_linear_13_28755" x1="26.668" y1="32.239" x2="26.668" y2="45.119" gradientUnits="userSpaceOnUse">
<stop stop-color="#F27457"/>
<stop offset="1" stop-color="#A08488"/>
</linearGradient>
<linearGradient id="paint3_linear_13_28755" x1="31.9959" y1="4.03906" x2="31.9959" y2="20.6657" gradientUnits="userSpaceOnUse">
<stop stop-color="#F27457"/>
<stop offset="1" stop-color="#A08488"/>
</linearGradient>
</defs>
</svg>
