<svg width="80" height="80" viewBox="0 0 80 80" fill="none" xmlns="http://www.w3.org/2000/svg">
<g>
<path d="M17.7038 69.981L10.3707 62.6099C-0.00528407 52.1825 -0.225676 34.893 10.3247 24.6445C15.2754 19.8499 21.8981 17.1978 28.7713 17.2576C35.6445 17.3173 42.2206 20.084 47.0881 24.964L54.7885 32.7071C55.3505 33.2718 55.7964 33.9422 56.1006 34.6802C56.4048 35.4182 56.5613 36.2093 56.5613 37.0081C56.5613 37.807 56.4048 38.5981 56.1006 39.3361C55.7964 40.0741 55.3505 40.7445 54.7885 41.3092C53.6534 42.4502 52.1141 43.0911 50.5091 43.0911C48.904 43.0911 47.3647 42.4502 46.2296 41.3092L38.7718 33.8143C36.182 31.1646 32.6758 29.6211 28.9829 29.505C25.29 29.389 21.6948 30.7093 18.9456 33.1913C17.553 34.4895 16.435 36.0567 15.6584 37.7993C14.8819 39.5419 14.4628 41.424 14.4261 43.3332C14.3894 45.2423 14.7359 47.1393 15.4449 48.9107C16.1539 50.6822 17.2109 52.2917 18.5526 53.643L26.2529 61.3861C26.815 61.9508 27.2608 62.6212 27.565 63.3592C27.8692 64.0972 28.0258 64.8883 28.0258 65.6871C28.0258 66.486 27.8692 67.2771 27.565 68.015C27.2608 68.753 26.815 69.4235 26.2529 69.9881C25.1173 71.1252 23.5795 71.763 21.9769 71.7617C20.3743 71.7603 18.8376 71.12 17.7038 69.981Z" fill="#F27457"/>
<path d="M62.2961 11.7799L69.6291 19.151C80.0051 29.5785 80.2264 46.8679 69.6751 57.1165C64.7245 61.9113 58.1018 64.5635 51.2285 64.5037C44.3552 64.444 37.7791 61.6771 32.9117 56.7969L25.2113 49.0538C24.6493 48.4892 24.2034 47.8187 23.8992 47.0807C23.595 46.3427 23.4385 45.5517 23.4385 44.7528C23.4385 43.9539 23.595 43.1629 23.8992 42.4249C24.2034 41.6869 24.6493 41.0164 25.2113 40.4518C26.3465 39.3108 27.8858 38.6698 29.4908 38.6698C31.0958 38.6698 32.6351 39.3108 33.7702 40.4518L41.2281 47.9466C43.8178 50.5966 47.324 52.1402 51.0169 52.2563C54.7099 52.3723 58.3051 51.0518 61.0543 48.5696C62.4469 47.2714 63.5648 45.7042 64.3414 43.9616C65.1179 42.2191 65.537 40.3369 65.5737 38.4278C65.6104 36.5186 65.2639 34.6216 64.5549 32.8502C63.8459 31.0788 62.789 29.4693 61.4473 28.1179L53.7469 20.3748C53.1849 19.8102 52.739 19.1397 52.4348 18.4017C52.1306 17.6637 51.974 16.8727 51.974 16.0738C51.974 15.2749 52.1306 14.4839 52.4348 13.7459C52.739 13.0079 53.1849 12.3374 53.7469 11.7728C54.8828 10.6362 56.4205 9.99867 58.0229 10C59.6254 10.0013 61.162 10.6414 62.2961 11.7799Z" fill="#F27457"/>
</g>
</svg>
