<svg width="80" height="80" viewBox="0 0 80 80" fill="none" xmlns="http://www.w3.org/2000/svg">
<g>
<path d="M34.0049 69.2871L37.5102 70.0002V66.329C37.5355 63.2678 36.9358 60.2335 35.7477 57.4114C34.5597 54.5893 32.8082 52.0385 30.6002 49.9149C28.6048 48.0396 27.2174 45.6106 26.6169 42.9407C26.0164 40.2709 26.2303 37.4826 27.231 34.9353C28.2317 32.3879 29.9734 30.1982 32.2315 28.6484C34.4897 27.0985 37.1609 26.2596 39.9008 26.2396C42.6408 26.2196 45.3239 27.0196 47.6045 28.5363C49.8851 30.0531 51.6586 32.2172 52.6964 34.7497C53.7342 37.2822 53.9888 40.067 53.4274 42.7453C52.866 45.4236 51.5143 47.8727 49.5465 49.7768C47.335 51.8611 45.5696 54.3714 44.3568 57.1562C43.144 59.9409 42.5091 62.9423 42.4904 65.979V69.9982L45.9996 69.2851L48.7493 62.4135C49.5195 59.1876 51.2108 56.2544 53.6178 53.9698C55.5078 52.1553 57.0097 49.9769 58.0327 47.5662C59.0558 45.1555 59.5786 42.5627 59.5698 39.9445C59.5652 37.2771 59.0157 34.6386 57.9548 32.1905C56.8938 29.7425 55.3439 27.5364 53.3997 25.7073C49.7852 22.2917 44.994 20.395 40.0178 20.4096C39.5981 20.4096 39.1768 20.4228 38.754 20.4492C33.9649 20.7928 29.4651 22.8667 26.0961 26.283C22.727 29.6994 20.7193 34.2243 20.4484 39.0117C20.314 41.8308 20.7931 44.6456 21.8528 47.262C22.9125 49.8785 24.5275 52.2344 26.5866 54.1675C28.9172 56.3949 30.5297 59.2656 31.2182 62.4128L34.0049 69.2871Z" fill="#F27457"/>
<path opacity="0.1" d="M42.6313 63.5612L42.4937 65.9767L47.5666 65.3777L48.7526 62.4132C48.9916 61.3971 49.3279 60.4063 49.7568 59.4545L42.6313 63.5612Z" fill="#F27457"/>
<path opacity="0.1" d="M30.2505 59.4498C30.6652 60.4068 30.9912 61.3998 31.2242 62.4163L32.4218 65.3783L37.5046 65.9772C37.5007 65.7471 37.4974 65.5183 37.487 65.2894L37.465 64.9005C37.4377 64.4428 37.3949 63.9877 37.341 63.5352L30.2505 59.4498Z" fill="#F27457"/>
<path d="M48.9376 68.5258C49.1031 68.4746 49.2673 68.4215 49.4315 68.3677C49.7635 68.2579 50.0926 68.1423 50.4189 68.0208C50.561 67.9677 50.7051 67.9171 50.8467 67.8627C56.4776 65.668 61.3163 61.8308 64.7326 56.8508C68.1488 51.8708 69.9843 45.9789 70 39.9424C69.999 35.9114 69.1832 31.9221 67.6014 28.2135C66.0197 24.5049 63.7046 21.1533 60.7948 18.3595C57.885 15.5658 54.4405 13.3875 50.6676 11.955C46.8946 10.5225 42.871 9.86532 38.8377 10.0229C31.3576 10.3476 24.2661 13.4403 18.9436 18.6989C13.621 23.9576 10.4482 31.006 10.0427 38.4721C9.68952 45.0538 11.5332 51.5664 15.2848 56.9891C19.0363 62.4117 24.4837 66.4379 30.7728 68.4364L30.8657 68.4668C31.3028 68.6047 31.7448 68.7333 32.1918 68.8526C32.286 68.8778 32.3801 68.9051 32.4749 68.9297C32.9741 69.0594 33.4771 69.1767 33.988 69.2804L34.0042 69.2843L37.5134 69.9974V65.9781C37.5124 65.1711 37.4664 64.3647 37.3758 63.5627C35.2902 63.4828 33.2278 63.0962 31.2551 62.4153C30.2041 62.0056 29.1835 61.5221 28.201 60.9683L28.1912 60.9949C23.5215 58.3908 19.8484 54.3136 17.7473 49.4017C15.6462 44.4898 15.2357 39.0207 16.58 33.8509C17.9244 28.6811 20.9477 24.1026 25.1765 20.8323C29.4053 17.5621 34.6008 15.7849 39.9492 15.779C45.2976 15.7731 50.497 17.5389 54.733 20.7999C58.969 24.0608 62.0024 28.6327 63.3581 33.7996C64.7139 38.9664 64.3154 44.4364 62.2251 49.3529C60.1348 54.2694 56.4707 58.3547 51.8067 60.969C51.3523 61.225 50.8856 61.4636 50.4117 61.6911C50.341 61.7255 50.2702 61.756 50.1988 61.7923C49.7444 62.0062 49.2777 62.2078 48.8045 62.3932C48.7454 62.4166 48.685 62.4367 48.6253 62.4581C46.6916 63.1153 44.6719 63.4866 42.6306 63.5601C42.54 64.3621 42.494 65.1685 42.493 65.9756V69.9948L46.0022 69.2817C46.4994 69.1812 46.9895 69.0645 47.4764 68.9401C47.6276 68.9012 47.7776 68.8577 47.9308 68.8169C48.2664 68.7294 48.6032 68.6328 48.9376 68.5258Z" fill="#F27457"/>
</g>
</svg>
