<svg width="80" height="80" viewBox="0 0 80 80" fill="none" xmlns="http://www.w3.org/2000/svg">
<g>
<path d="M42.8128 10.0035V24.4037C38.5376 21.3639 33.4227 19.7296 28.1772 19.7275C21.3366 19.8166 14.8063 22.5969 10.0005 27.4663C5.19464 32.3358 2.5 38.9025 2.5 45.7446C2.5 52.5867 5.19464 59.1534 10.0005 64.0229C14.8063 68.8924 21.3366 71.6727 28.1772 71.7617C33.4227 71.7596 38.5376 70.1253 42.8128 67.0855V71.7617H55.092V10L42.8128 10.0035ZM28.1763 59.7138C25.4065 59.7509 22.6883 58.9633 20.3672 57.4513C18.0461 55.9392 16.2271 53.771 15.1414 51.2222C14.0558 48.6735 13.7525 45.8594 14.2702 43.1378C14.7879 40.4162 16.1031 37.9101 18.0487 35.9381C19.9943 33.9661 22.4823 32.6173 25.1964 32.0633C27.9105 31.5092 30.7279 31.7749 33.2906 32.8266C35.8533 33.8783 38.0454 35.6684 39.5881 37.9694C41.1308 40.2703 41.9545 42.9782 41.9544 45.7486C41.9746 49.4265 40.5354 52.9623 37.9524 55.5803C35.3694 58.1984 31.8537 59.6849 28.1763 59.7138Z" fill="#F27457"/>
<path d="M77.5 52.3445C77.4803 53.8339 77.0208 55.2842 76.1792 56.513C75.3375 57.7418 74.1513 58.6943 72.7699 59.2507C71.3884 59.8071 69.8732 59.9425 68.415 59.6399C66.9568 59.3374 65.6206 58.6103 64.5744 57.5502C63.5282 56.4901 62.8188 55.1443 62.5354 53.682C62.2521 52.2197 62.4073 50.7063 62.9817 49.332C63.556 47.9578 64.5239 46.7841 65.7635 45.9585C67.0031 45.1329 68.4591 44.6924 69.9484 44.6923C70.9466 44.6987 71.9339 44.9018 72.8536 45.2899C73.7734 45.6779 74.6078 46.2434 75.309 46.954C76.0103 47.6646 76.5646 48.5064 76.9406 49.4313C77.3165 50.3562 77.5066 51.3462 77.5 52.3445Z" fill="#F27457"/>
<path d="M77.5 29.4222C77.4803 30.9115 77.0208 32.3618 76.1792 33.5906C75.3375 34.8195 74.1513 35.772 72.7699 36.3284C71.3884 36.8847 69.8732 37.0202 68.415 36.7176C66.9568 36.415 65.6206 35.6879 64.5744 34.6278C63.5282 33.5677 62.8188 32.2219 62.5354 30.7596C62.2521 29.2974 62.4073 27.7839 62.9817 26.4097C63.556 25.0354 64.5239 23.8617 65.7635 23.0361C67.0031 22.2106 68.4591 21.77 69.9484 21.7699C71.9644 21.7832 73.8926 22.5969 75.3088 24.0319C76.7249 25.467 77.5131 27.4059 77.5 29.4222Z" fill="#F27457"/>
</g>
</svg>
