<svg width="80" height="80" viewBox="0 0 80 80" fill="none" xmlns="http://www.w3.org/2000/svg">
<g>
<path fill-rule="evenodd" clip-rule="evenodd" d="M54.9305 15.1319C72.5228 25.3104 69.8555 20.6771 69.8555 41.0257C69.8555 61.3742 72.5238 56.7462 54.9305 66.9194C48.1067 70.8655 44.7327 73.2772 42.1322 74.1662C42.2101 59.2943 43.3367 62.7483 59.1237 53.6169V51.1623C57.706 50.3418 56.289 49.5223 54.8728 48.7039C53.4565 47.8855 52.0399 47.0673 50.6229 46.2492C49.2091 45.4283 47.7934 44.6089 46.3757 43.7908C44.958 42.9728 43.541 42.153 42.1248 41.3314C41.4157 40.9245 40.7088 40.5153 40.0041 40.1038C38.585 39.2868 37.168 38.4686 35.7531 37.6491C34.3383 36.8296 32.9213 36.0102 31.5022 35.1907C30.7896 34.7767 30.0707 34.3665 29.3619 33.952C29.0433 33.7638 28.7794 33.4957 28.5962 33.1741C28.413 32.8524 28.3169 32.4885 28.3175 32.1182C28.3163 31.7453 28.4148 31.3788 28.6027 31.0568C28.7418 30.8149 28.9273 30.6029 29.1484 30.4328C29.3695 30.2628 29.6219 30.1381 29.8913 30.0658C30.1606 29.9935 30.4415 29.9751 30.7179 30.0117C30.9943 30.0482 31.2608 30.1389 31.5022 30.2787C32.9199 31.0957 34.3369 31.9139 35.7531 32.7334C37.1694 33.5528 38.5864 34.3723 40.0041 35.1918C42.1269 36.4192 44.2514 37.6477 46.3778 38.8772C47.7916 39.6942 49.2073 40.5125 50.625 41.3319V36.4188C47.0831 34.3744 43.5428 32.3277 40.0041 30.2787C39.2876 29.8647 38.5724 29.4506 37.8584 29.0362C37.3825 28.7463 37.0393 28.2808 36.9028 27.74C36.7664 27.1992 36.8476 26.6264 37.1289 26.1449C37.4103 25.6635 37.8693 25.3119 38.407 25.166C38.9448 25.02 39.5183 25.0913 40.0041 25.3646C44.9601 28.2306 49.917 31.0966 54.8749 33.9626V43.7898C56.294 44.6103 57.711 45.4298 59.1258 46.2482V31.5042L40.0019 20.4478C38.5828 21.2684 37.1659 22.0878 35.751 22.9062C34.3362 23.7246 32.9192 24.5441 31.5001 25.3646L30.4397 25.9792C29.3794 26.5934 28.3176 27.2073 27.2545 27.8209C25.8368 28.6414 24.4201 29.4609 23.0046 30.2793C22.2941 30.6895 21.5853 31.0961 20.8802 31.5063V33.9647L25.1274 36.4194C26.5451 37.2399 27.962 38.0594 29.3783 38.8778C30.7946 39.6962 32.2112 40.5144 33.6282 41.3324C35.042 42.153 36.4577 42.9728 37.8754 43.7919C38.5844 44.2023 39.2938 44.6115 40.0035 45.0195C42.8354 46.657 45.6677 48.2959 48.5006 49.9363C49.2169 50.3502 49.9374 50.7632 50.6526 51.1771C50.9679 51.3668 51.2289 51.6347 51.4106 51.9549C51.5923 52.2751 51.6884 52.6368 51.6896 53.005C51.6891 53.3784 51.5905 53.7451 51.4038 54.0684C51.2171 54.3916 50.9488 54.6601 50.6258 54.8468C50.3028 55.0336 49.9365 55.132 49.5635 55.1324C49.1905 55.1327 48.824 55.0349 48.5006 54.8488L44.2507 52.3904C42.8369 51.5734 41.4212 50.7552 40.0035 49.9357C37.8754 48.7048 35.7503 47.4763 33.6282 46.2503C32.2105 45.4294 30.7939 44.6099 29.3783 43.7919V48.7049C32.9192 50.7529 36.4609 52.8008 40.0035 54.8488C40.7161 55.2633 41.4313 55.6736 42.1476 56.0876C42.4647 56.2761 42.7274 56.5441 42.9098 56.865C43.0923 57.1859 43.1882 57.5488 43.1883 57.9181C43.1885 58.2913 43.0907 58.6581 42.9045 58.9815C42.7183 59.3049 42.4504 59.5735 42.1277 59.7604C41.8049 59.9473 41.4387 60.0459 41.0658 60.0462C40.693 60.0466 40.3266 59.9487 40.0035 59.7624C35.0436 56.8964 30.0849 54.0304 25.1274 51.1644V41.3319L20.8802 38.8772V53.6175C36.6677 62.7462 37.7927 59.2964 37.8728 74.1667C35.2707 73.2782 31.8972 70.866 25.0733 66.9199C7.47634 56.7467 10.1447 61.3753 10.1447 41.0262C10.1447 20.6771 7.47475 25.3104 25.0723 15.1319C42.6698 4.95338 37.3325 4.95868 54.9311 15.1319" fill="#F27457"/>
</g>
</svg>
