<svg width="80" height="80" viewBox="0 0 80 80" fill="none" xmlns="http://www.w3.org/2000/svg">
<path fill-rule="evenodd" clip-rule="evenodd" d="M39.9899 20.8826C43.772 20.8826 47.4692 22.0038 50.614 24.1044C53.7587 26.2051 56.2097 29.1908 57.6571 32.6841C59.1044 36.1773 59.4831 40.0212 58.7453 43.7296C58.0074 47.438 56.1861 50.8444 53.5118 53.5181C50.8374 56.1917 47.43 58.0124 43.7206 58.7501C40.0111 59.4877 36.1661 59.1091 32.6719 57.6622C29.1776 56.2152 26.1911 53.7649 24.0898 50.6211C21.9886 47.4772 20.8671 43.7811 20.8671 40C20.8671 34.9297 22.8818 30.0671 26.468 26.4819C30.0542 22.8967 34.9182 20.8826 39.9899 20.8826ZM64.304 56.1135C65.925 56.1135 67.5096 56.594 68.8574 57.4944C70.2053 58.3947 71.2558 59.6744 71.8761 61.1716C72.4965 62.6688 72.6588 64.3163 72.3425 65.9057C72.0263 67.4951 71.2457 68.9551 70.0994 70.101C68.9532 71.247 67.4928 72.0273 65.9029 72.3435C64.313 72.6596 62.6651 72.4974 61.1675 71.8772C59.6698 71.2571 58.3898 70.2068 57.4892 68.8594C56.5886 67.5119 56.1079 65.9278 56.1079 64.3072C56.1078 63.2312 56.3197 62.1656 56.7316 61.1715C57.1434 60.1773 57.7471 59.274 58.5082 58.5131C59.2693 57.7522 60.1729 57.1487 61.1673 56.737C62.1618 56.3252 63.2276 56.1134 64.304 56.1135ZM25.8502 41.8423C25.8487 38.793 26.7204 35.807 28.3623 33.2372C30.0041 30.6674 32.3475 28.6211 35.1156 27.3403C37.8836 26.0595 40.9605 25.5975 43.9828 26.0092C47.005 26.4208 49.8462 27.6887 52.1706 29.6631C50.7395 27.9879 48.9772 26.6269 46.9945 25.6654C45.0119 24.704 42.8517 24.163 40.6497 24.0765C38.4478 23.9899 36.2518 24.3597 34.1998 25.1626C32.1477 25.9655 30.284 27.1841 28.7258 28.7418C27.1676 30.2996 25.9485 32.1627 25.1453 34.2141C24.3421 36.2656 23.9722 38.4609 24.0586 40.6622C24.1451 42.8635 24.6861 45.0231 25.6477 47.0053C26.6094 48.9875 27.9708 50.7493 29.6464 52.1801C27.1913 49.2951 25.8462 45.6291 25.853 41.8414L25.8502 41.8423ZM39.9899 7.5C45.5379 7.50147 50.9932 8.92196 55.837 11.6263C60.6808 14.3307 64.7519 18.2291 67.6631 22.9506C70.5744 27.672 72.2288 33.0596 72.4692 38.6008C72.7096 44.142 71.5278 49.6526 69.0364 54.6083C67.0162 53.6233 64.7388 53.2934 62.522 53.6644C60.3052 54.0355 58.2596 55.089 56.6705 56.6781C55.0814 58.2672 54.028 60.3125 53.6574 62.5288C53.2868 64.7451 53.6175 67.0217 54.6032 69.0411C50.2193 71.2429 45.3938 72.4242 40.4883 72.4965C35.5828 72.5687 30.7245 71.5301 26.2776 69.4584C21.8307 67.3867 17.9105 64.3357 14.8107 60.534C11.711 56.7323 9.51218 52.2786 8.37903 47.5065C7.24587 42.7345 7.20779 37.7679 8.26763 32.9791C9.32747 28.1902 11.4578 23.7033 14.4988 19.8546C17.5399 16.0058 21.4128 12.8951 25.8275 10.7555C30.2421 8.61587 35.0838 7.50291 39.9899 7.5Z" fill="#F27457"/>
</svg>
