<svg width="80" height="80" viewBox="0 0 80 80" fill="none" xmlns="http://www.w3.org/2000/svg">
<g>
<path fill-rule="evenodd" clip-rule="evenodd" d="M40.0017 55.6337L43.2072 58.8702C44.0358 59.7169 44.5028 60.8572 44.5081 62.0468C44.5134 63.2365 44.0567 64.381 43.2357 65.2352L40.0017 68.5L36.7685 65.2352C35.9473 64.3811 35.4904 63.2366 35.4958 62.0468C35.5011 60.8571 35.9682 59.7168 36.797 58.8702L40.0017 55.6337ZM43.1692 20.2426C42.3252 19.4031 41.1874 18.9325 40.0021 18.9325C38.8167 18.9325 37.679 19.4031 36.8349 20.2426L20.8835 36.3419L14.5091 42.7718C12.2344 40.4768 12.3371 40.5704 11.3096 39.5344C10.5015 38.7135 10.0338 37.6129 10.0018 36.4565C9.9697 35.3 10.3756 34.1748 11.137 33.3096L30.4402 13.8314C30.8586 13.4093 31.3553 13.0745 31.902 12.846C32.4487 12.6176 33.0346 12.5 33.6264 12.5C34.2181 12.5 34.8041 12.6176 35.3507 12.846C35.8974 13.0745 36.3941 13.4093 36.8125 13.8314L39.9995 17.0475L43.1878 13.8314C43.606 13.4094 44.1027 13.0745 44.6493 12.8461C45.1958 12.6177 45.7817 12.5001 46.3733 12.5001C46.9649 12.5001 47.5508 12.6177 48.0973 12.8461C48.6439 13.0745 49.1405 13.4094 49.5588 13.8314L68.8634 33.3096C69.6245 34.1749 70.0303 35.3001 69.9982 36.4564C69.9662 37.6128 69.4986 38.7134 68.6907 39.5344C67.6645 40.5709 67.7659 40.4768 65.4925 42.7718L59.1172 36.3419L43.1692 20.2426ZM31.0811 51.7765L36.8354 45.9704C37.6781 45.1284 38.8163 44.6561 40.0025 44.6561C41.1887 44.6561 42.3269 45.1284 43.1697 45.9704L48.924 51.7765L52.7497 55.6368C55.0313 53.3336 54.9216 53.4328 55.9431 52.4024C56.7805 51.5524 57.2512 50.4032 57.2529 49.2048C57.2546 48.0065 56.7871 46.8559 55.9522 46.0035L51.1639 41.1716L46.3757 36.3397H46.3787L43.1714 33.1032C42.3276 32.2631 41.1898 31.7921 40.0042 31.7921C38.8187 31.7921 37.6808 32.2631 36.8371 33.1032L33.6298 36.3397L24.0563 46.0035C23.2212 46.8558 22.7536 48.0063 22.7552 49.2047C22.7567 50.403 23.2272 51.5523 24.0645 52.4024C25.0855 53.4328 24.975 53.3336 27.258 55.6368L31.0811 51.7765Z" fill="#F27457"/>
</g>
</svg>
