<svg width="64" height="64" viewBox="0 0 64 64" fill="none" xmlns="http://www.w3.org/2000/svg">
<path d="M38.6673 24.6665H5.33398C4.24065 24.6665 3.33398 23.7598 3.33398 22.6665C3.33398 21.5732 4.24065 20.6665 5.33398 20.6665H38.6673C39.7607 20.6665 40.6673 21.5732 40.6673 22.6665C40.6673 23.7598 39.7607 24.6665 38.6673 24.6665Z" fill="url(#paint0_linear_14_41242)"/>
<path d="M21.3333 46H16C14.9067 46 14 45.0933 14 44C14 42.9067 14.9067 42 16 42H21.3333C22.4267 42 23.3333 42.9067 23.3333 44C23.3333 45.0933 22.4267 46 21.3333 46Z" fill="url(#paint1_linear_14_41242)"/>
<path d="M38.6667 46H28C26.9067 46 26 45.0933 26 44C26 42.9067 26.9067 42 28 42H38.6667C39.76 42 40.6667 42.9067 40.6667 44C40.6667 45.0933 39.76 46 38.6667 46Z" fill="url(#paint2_linear_14_41242)"/>
<path d="M46.8273 56.6666H17.174C6.56065 56.6666 3.33398 53.4666 3.33398 42.9599V21.0399C3.33398 10.5333 6.56065 7.33325 17.174 7.33325H38.6673C39.7607 7.33325 40.6673 8.23992 40.6673 9.33325C40.6673 10.4266 39.7607 11.3333 38.6673 11.3333H17.174C8.80065 11.3333 7.33398 12.7733 7.33398 21.0399V42.9333C7.33398 51.1999 8.80065 52.6399 17.174 52.6399H46.8007C55.174 52.6399 56.6407 51.1999 56.6407 42.9333V37.3866C56.6407 36.2933 57.5473 35.3866 58.6407 35.3866C59.734 35.3866 60.6407 36.2933 60.6407 37.3866V42.9333C60.6673 53.4666 57.4407 56.6666 46.8273 56.6666Z" fill="url(#paint3_linear_14_41242)"/>
<path d="M53.334 27.3333C52.2407 27.3333 51.334 26.4267 51.334 25.3333V9.33333C51.334 8.53333 51.814 7.78667 52.5607 7.49333C53.3073 7.2 54.1607 7.36 54.7473 7.92L60.0807 13.2533C60.854 14.0267 60.854 15.3067 60.0807 16.08C59.3073 16.8533 58.0273 16.8533 57.254 16.08L55.334 14.16V25.3333C55.334 26.4267 54.4273 27.3333 53.334 27.3333Z" fill="url(#paint4_linear_14_41242)"/>
<path d="M48.0011 16.6665C47.4945 16.6665 46.9878 16.4798 46.5878 16.0798C45.8145 15.3065 45.8145 14.0265 46.5878 13.2532L51.9211 7.91984C52.6945 7.14651 53.9745 7.14651 54.7478 7.91984C55.5211 8.69318 55.5211 9.97318 54.7478 10.7465L49.4145 16.0798C49.0145 16.4798 48.5078 16.6665 48.0011 16.6665Z" fill="url(#paint5_linear_14_41242)"/>
<defs>
<linearGradient id="paint0_linear_14_41242" x1="22.0007" y1="20.6665" x2="22.0007" y2="24.6665" gradientUnits="userSpaceOnUse">
<stop stop-color="#F27457"/>
<stop offset="1" stop-color="#A08488"/>
</linearGradient>
<linearGradient id="paint1_linear_14_41242" x1="18.6667" y1="42" x2="18.6667" y2="46" gradientUnits="userSpaceOnUse">
<stop stop-color="#F27457"/>
<stop offset="1" stop-color="#A08488"/>
</linearGradient>
<linearGradient id="paint2_linear_14_41242" x1="33.3333" y1="42" x2="33.3333" y2="46" gradientUnits="userSpaceOnUse">
<stop stop-color="#F27457"/>
<stop offset="1" stop-color="#A08488"/>
</linearGradient>
<linearGradient id="paint3_linear_14_41242" x1="31.9874" y1="7.33325" x2="31.9874" y2="56.6666" gradientUnits="userSpaceOnUse">
<stop stop-color="#F27457"/>
<stop offset="1" stop-color="#A08488"/>
</linearGradient>
<linearGradient id="paint4_linear_14_41242" x1="55.9973" y1="7.34912" x2="55.9973" y2="27.3333" gradientUnits="userSpaceOnUse">
<stop stop-color="#F27457"/>
<stop offset="1" stop-color="#A08488"/>
</linearGradient>
<linearGradient id="paint5_linear_14_41242" x1="50.6678" y1="7.33984" x2="50.6678" y2="16.6665" gradientUnits="userSpaceOnUse">
<stop stop-color="#F27457"/>
<stop offset="1" stop-color="#A08488"/>
</linearGradient>
</defs>
</svg>
