<svg width="64" height="64" viewBox="0 0 64 64" fill="none" xmlns="http://www.w3.org/2000/svg">
<path d="M28.1615 60.56C25.2814 60.56 22.3747 59.7333 20.1347 58.0533L8.72136 49.52C5.70802 47.28 3.36133 42.56 3.36133 38.7733V19.0133C3.36133 14.9333 6.34805 10.5866 10.188 9.14659L23.468 4.15992C26.108 3.17326 30.2415 3.17326 32.8815 4.15992L46.1348 9.14659C49.2548 10.3199 51.8948 13.4399 52.7481 16.9066C52.8815 17.4933 52.7481 18.1333 52.3748 18.6133C52.0015 19.0933 51.4148 19.3866 50.8015 19.3866L29.7081 19.4133C26.3214 19.6266 25.4947 20.1866 25.4947 25.12V39.6C25.4947 44.6933 26.1614 45.3333 31.3348 45.3333H47.1215C47.9481 45.3333 48.6948 45.84 48.9881 46.6133C49.2815 47.3867 49.0681 48.2667 48.4548 48.8267C48.1615 49.0667 47.9215 49.3067 47.6281 49.52L36.2148 58.08C33.9215 59.7333 31.0415 60.56 28.1615 60.56ZM28.1615 7.43995C26.9615 7.43995 25.7347 7.59995 24.8547 7.94662L11.5747 12.9333C9.33469 13.7866 7.33469 16.6399 7.33469 19.0666V38.8267C7.33469 41.3333 9.09469 44.8533 11.0947 46.3467L22.508 54.88C25.5747 57.1467 30.7215 57.1467 33.7881 54.88L41.1748 49.36H31.3081C23.948 49.36 21.468 46.9067 21.468 39.6267V25.1466C21.468 19.4666 22.828 15.8666 29.5748 15.4399L31.3081 15.4133H47.7081C46.9081 14.2666 45.8415 13.3599 44.7215 12.9333L31.4681 7.94662C30.5615 7.59995 29.3615 7.43995 28.1615 7.43995Z" fill="url(#paint0_linear_14_41205)"/>
<path d="M58.6688 31.9199H23.4688C22.3754 31.9199 21.4688 31.0133 21.4688 29.9199C21.4688 28.8266 22.3754 27.9199 23.4688 27.9199H58.6688C59.7621 27.9199 60.6688 28.8266 60.6688 29.9199C60.6688 31.0133 59.7621 31.9199 58.6688 31.9199Z" fill="url(#paint1_linear_14_41205)"/>
<path d="M50.8288 49.3332H31.3088C23.9488 49.3332 21.4688 46.8799 21.4688 39.5999V25.1199C21.4688 19.4399 22.8287 15.8398 29.5754 15.4132L31.3088 15.3865H50.8288C58.1888 15.3865 60.6688 17.8399 60.6688 25.1199V39.9199C60.6154 46.9599 58.1354 49.3332 50.8288 49.3332ZM31.3088 19.3865L29.6821 19.4132C26.2954 19.6265 25.4688 20.1865 25.4688 25.1199V39.5999C25.4688 44.6932 26.1354 45.3332 31.3088 45.3332H50.8288C55.9221 45.3332 56.6154 44.6666 56.6688 39.9199V25.1465C56.6688 20.0531 56.0021 19.4132 50.8288 19.4132H31.3088V19.3865Z" fill="url(#paint2_linear_14_41205)"/>
<path d="M33.7354 42.6934H30.1621C29.0688 42.6934 28.1621 41.7867 28.1621 40.6934C28.1621 39.6 29.0688 38.6934 30.1621 38.6934H33.7354C34.8288 38.6934 35.7354 39.6 35.7354 40.6934C35.7354 41.7867 34.8554 42.6934 33.7354 42.6934Z" fill="url(#paint3_linear_14_41205)"/>
<path d="M48.0559 42.6934H39.3359C38.2426 42.6934 37.3359 41.7867 37.3359 40.6934C37.3359 39.6 38.2426 38.6934 39.3359 38.6934H48.0559C49.1493 38.6934 50.0559 39.6 50.0559 40.6934C50.0559 41.7867 49.1759 42.6934 48.0559 42.6934Z" fill="url(#paint4_linear_14_41205)"/>
<defs>
<linearGradient id="paint0_linear_14_41205" x1="28.0799" y1="3.41992" x2="28.0799" y2="60.56" gradientUnits="userSpaceOnUse">
<stop stop-color="#F27457"/>
<stop offset="1" stop-color="#A08488"/>
</linearGradient>
<linearGradient id="paint1_linear_14_41205" x1="41.0688" y1="27.9199" x2="41.0688" y2="31.9199" gradientUnits="userSpaceOnUse">
<stop stop-color="#F27457"/>
<stop offset="1" stop-color="#A08488"/>
</linearGradient>
<linearGradient id="paint2_linear_14_41205" x1="41.0688" y1="15.3865" x2="41.0688" y2="49.3332" gradientUnits="userSpaceOnUse">
<stop stop-color="#F27457"/>
<stop offset="1" stop-color="#A08488"/>
</linearGradient>
<linearGradient id="paint3_linear_14_41205" x1="31.9488" y1="38.6934" x2="31.9488" y2="42.6934" gradientUnits="userSpaceOnUse">
<stop stop-color="#F27457"/>
<stop offset="1" stop-color="#A08488"/>
</linearGradient>
<linearGradient id="paint4_linear_14_41205" x1="43.6959" y1="38.6934" x2="43.6959" y2="42.6934" gradientUnits="userSpaceOnUse">
<stop stop-color="#F27457"/>
<stop offset="1" stop-color="#A08488"/>
</linearGradient>
</defs>
</svg>
