<svg width="64" height="64" viewBox="0 0 64 64" fill="none" xmlns="http://www.w3.org/2000/svg">
<path d="M34.8007 43.3333H29.7873C26.2407 43.3333 23.334 40.3466 23.334 36.6666C23.334 35.5733 24.2407 34.6666 25.334 34.6666C26.4273 34.6666 27.334 35.5733 27.334 36.6666C27.334 38.1333 28.4273 39.3333 29.7873 39.3333H34.8007C35.8407 39.3333 36.6673 38.3999 36.6673 37.2533C36.6673 35.8133 36.2673 35.5999 35.3607 35.2799L27.334 32.4799C25.6273 31.8933 23.334 30.6399 23.334 26.7199C23.334 23.3866 25.974 20.6399 29.2007 20.6399H34.214C37.7607 20.6399 40.6673 23.6266 40.6673 27.3066C40.6673 28.3999 39.7607 29.3066 38.6673 29.3066C37.574 29.3066 36.6673 28.3999 36.6673 27.3066C36.6673 25.8399 35.574 24.6399 34.214 24.6399H29.2007C28.1607 24.6399 27.334 25.5732 27.334 26.7199C27.334 28.1599 27.734 28.3733 28.6407 28.6933L36.6673 31.4933C38.374 32.0799 40.6673 33.3333 40.6673 37.2533C40.6673 40.6133 38.0273 43.3333 34.8007 43.3333Z" fill="url(#paint0_linear_14_41211)"/>
<path d="M32 46C30.9067 46 30 45.0933 30 44V20C30 18.9067 30.9067 18 32 18C33.0933 18 34 18.9067 34 20V44C34 45.0933 33.0933 46 32 46Z" fill="url(#paint1_linear_14_41211)"/>
<path d="M32.0007 60.6666C16.1873 60.6666 3.33398 47.8133 3.33398 31.9999C3.33398 16.1866 16.1873 3.33325 32.0007 3.33325C33.094 3.33325 34.0007 4.23992 34.0007 5.33325C34.0007 6.42659 33.094 7.33325 32.0007 7.33325C18.4007 7.33325 7.33398 18.3999 7.33398 31.9999C7.33398 45.5999 18.4007 56.6666 32.0007 56.6666C45.6007 56.6666 56.6673 45.5999 56.6673 31.9999C56.6673 30.9066 57.574 29.9999 58.6673 29.9999C59.7607 29.9999 60.6673 30.9066 60.6673 31.9999C60.6673 47.8133 47.814 60.6666 32.0007 60.6666Z" fill="url(#paint2_linear_14_41211)"/>
<path d="M56.0006 20.6667H45.334C44.2407 20.6667 43.334 19.76 43.334 18.6667V8C43.334 6.90667 44.2407 6 45.334 6C46.4273 6 47.334 6.90667 47.334 8V16.6667H56.0006C57.094 16.6667 58.0006 17.5733 58.0006 18.6667C58.0006 19.76 57.094 20.6667 56.0006 20.6667Z" fill="url(#paint3_linear_14_41211)"/>
<path d="M45.3334 20.6665C44.8268 20.6665 44.3198 20.4798 43.9198 20.0798C43.1465 19.3065 43.1465 18.0265 43.9198 17.2532L57.2532 3.91984C58.0265 3.14651 59.3065 3.14651 60.0798 3.91984C60.8532 4.69318 60.8532 5.97318 60.0798 6.74651L46.7465 20.0798C46.3465 20.4798 45.8401 20.6665 45.3334 20.6665Z" fill="url(#paint4_linear_14_41211)"/>
<defs>
<linearGradient id="paint0_linear_14_41211" x1="32.0007" y1="20.6399" x2="32.0007" y2="43.3333" gradientUnits="userSpaceOnUse">
<stop stop-color="#F27457"/>
<stop offset="1" stop-color="#A08488"/>
</linearGradient>
<linearGradient id="paint1_linear_14_41211" x1="32" y1="18" x2="32" y2="46" gradientUnits="userSpaceOnUse">
<stop stop-color="#F27457"/>
<stop offset="1" stop-color="#A08488"/>
</linearGradient>
<linearGradient id="paint2_linear_14_41211" x1="32.0007" y1="3.33325" x2="32.0007" y2="60.6666" gradientUnits="userSpaceOnUse">
<stop stop-color="#F27457"/>
<stop offset="1" stop-color="#A08488"/>
</linearGradient>
<linearGradient id="paint3_linear_14_41211" x1="50.6673" y1="6" x2="50.6673" y2="20.6667" gradientUnits="userSpaceOnUse">
<stop stop-color="#F27457"/>
<stop offset="1" stop-color="#A08488"/>
</linearGradient>
<linearGradient id="paint4_linear_14_41211" x1="51.9998" y1="3.33984" x2="51.9998" y2="20.6665" gradientUnits="userSpaceOnUse">
<stop stop-color="#F27457"/>
<stop offset="1" stop-color="#A08488"/>
</linearGradient>
</defs>
</svg>
