<svg width="64" height="64" viewBox="0 0 64 64" fill="none" xmlns="http://www.w3.org/2000/svg">
<path d="M57.8691 17.04H38.4824C37.3891 17.04 36.4824 16.1334 36.4824 15.04C36.4824 13.9467 37.3891 13.04 38.4824 13.04H57.8691C58.9624 13.04 59.8691 13.9467 59.8691 15.04C59.8691 16.1334 58.9624 17.04 57.8691 17.04Z" fill="url(#paint0_linear_14_41347)"/>
<path d="M25.5481 17.04H6.13477C5.04143 17.04 4.13477 16.1334 4.13477 15.04C4.13477 13.9467 5.04143 13.04 6.13477 13.04H25.5214C26.6148 13.04 27.5215 13.9467 27.5215 15.04C27.5215 16.1334 26.6414 17.04 25.5481 17.04Z" fill="url(#paint1_linear_14_41347)"/>
<path d="M57.8691 42.8799H38.4824C37.3891 42.8799 36.4824 41.9732 36.4824 40.8799C36.4824 39.7865 37.3891 38.8799 38.4824 38.8799H57.8691C58.9624 38.8799 59.8691 39.7865 59.8691 40.8799C59.8691 41.9732 58.9624 42.8799 57.8691 42.8799Z" fill="url(#paint2_linear_14_41347)"/>
<path d="M57.8691 59.04H38.4824C37.3891 59.04 36.4824 58.1334 36.4824 57.04C36.4824 55.9467 37.3891 55.04 38.4824 55.04H57.8691C58.9624 55.04 59.8691 55.9467 59.8691 57.04C59.8691 58.1334 58.9624 59.04 57.8691 59.04Z" fill="#F27457"/>
<path d="M48.2422 26.7199C47.1489 26.7199 46.2422 25.8133 46.2422 24.7199V5.33325C46.2422 4.23992 47.1489 3.33325 48.2422 3.33325C49.3355 3.33325 50.2422 4.23992 50.2422 5.33325V24.7199C50.2422 25.8399 49.3622 26.7199 48.2422 26.7199Z" fill="url(#paint3_linear_14_41347)"/>
<path d="M6.13396 60.6666C5.62729 60.6666 5.12063 60.48 4.72063 60.08C3.94729 59.3066 3.94729 58.0266 4.72063 57.2533L24.1073 37.8666C24.8806 37.0933 26.1606 37.0933 26.934 37.8666C27.7073 38.64 27.7073 39.92 26.934 40.6933L7.54729 60.08C7.17396 60.48 6.66729 60.6666 6.13396 60.6666Z" fill="url(#paint4_linear_14_41347)"/>
<path d="M25.548 60.6666C25.0413 60.6666 24.5346 60.48 24.1346 60.08L4.74797 40.6933C3.97464 39.92 3.97464 38.64 4.74797 37.8666C5.5213 37.0933 6.8013 37.0933 7.57464 37.8666L26.9614 57.2533C27.7347 58.0266 27.7347 59.3066 26.9614 60.08C26.5613 60.48 26.0546 60.6666 25.548 60.6666Z" fill="url(#paint5_linear_14_41347)"/>
<defs>
<linearGradient id="paint0_linear_14_41347" x1="48.1758" y1="13.04" x2="48.1758" y2="17.04" gradientUnits="userSpaceOnUse">
<stop stop-color="#F27457"/>
<stop offset="1" stop-color="#A08488"/>
</linearGradient>
<linearGradient id="paint1_linear_14_41347" x1="15.8281" y1="13.04" x2="15.8281" y2="17.04" gradientUnits="userSpaceOnUse">
<stop stop-color="#F27457"/>
<stop offset="1" stop-color="#A08488"/>
</linearGradient>
<linearGradient id="paint2_linear_14_41347" x1="48.1758" y1="38.8799" x2="48.1758" y2="42.8799" gradientUnits="userSpaceOnUse">
<stop stop-color="#F27457"/>
<stop offset="1" stop-color="#A08488"/>
</linearGradient>
<linearGradient id="paint3_linear_14_41347" x1="48.2422" y1="3.33325" x2="48.2422" y2="26.7199" gradientUnits="userSpaceOnUse">
<stop stop-color="#F27457"/>
<stop offset="1" stop-color="#A08488"/>
</linearGradient>
<linearGradient id="paint4_linear_14_41347" x1="15.8273" y1="37.2866" x2="15.8273" y2="60.6666" gradientUnits="userSpaceOnUse">
<stop stop-color="#F27457"/>
<stop offset="1" stop-color="#A08488"/>
</linearGradient>
<linearGradient id="paint5_linear_14_41347" x1="15.8547" y1="37.2866" x2="15.8547" y2="60.6666" gradientUnits="userSpaceOnUse">
<stop stop-color="#F27457"/>
<stop offset="1" stop-color="#A08488"/>
</linearGradient>
</defs>
</svg>
