<svg width="64" height="64" viewBox="0 0 64 64" fill="none" xmlns="http://www.w3.org/2000/svg">
<path d="M51.786 31.3335H42.666C41.5727 31.3335 40.666 30.4268 40.666 29.3335V10.6935C40.666 8.72016 41.4393 6.88016 42.826 5.4935C44.2127 4.10683 46.0527 3.3335 48.026 3.3335H48.0527C51.386 3.36016 54.5327 4.66683 56.9327 7.04016C59.3327 9.46683 60.6393 12.6668 60.6393 16.0002V22.4535C60.666 27.7602 57.0927 31.3335 51.786 31.3335ZM44.666 27.3335H51.786C54.8793 27.3335 56.666 25.5468 56.666 22.4535V16.0002C56.666 13.7068 55.7593 11.5202 54.1327 9.86683C52.506 8.26683 50.3193 7.36016 48.0527 7.3335C48.0527 7.3335 48.0527 7.3335 48.026 7.3335C47.146 7.3335 46.2927 7.68016 45.6527 8.32016C45.0127 8.96016 44.666 9.78683 44.666 10.6935V27.3335Z" fill="url(#paint0_linear_14_41404)"/>
<path d="M23.9994 62.2135C22.746 62.2668 21.5727 61.7335 20.6927 60.8268L16.2661 56.3735C16.0261 56.1335 15.6527 56.1068 15.3861 56.3202L10.826 59.7335C9.41271 60.8002 7.54604 60.9868 5.94604 60.1868C4.34604 59.3868 3.35938 57.7868 3.35938 56.0002V16.0002C3.35938 7.94683 7.97271 3.3335 16.026 3.3335H48.0267C49.12 3.3335 50.0261 4.24016 50.0261 5.3335C50.0261 6.42683 49.12 7.3335 48.0267 7.3335C46.1867 7.3335 44.6928 8.82683 44.6928 10.6668V56.0002C44.6928 57.7868 43.7061 59.3868 42.1061 60.1868C40.5061 60.9868 38.6395 60.8268 37.2261 59.7602L32.6661 56.3468C32.3995 56.1335 32.0261 56.1868 31.8128 56.4002L27.3328 60.8802C26.426 61.7335 25.2527 62.2135 23.9994 62.2135ZM15.7594 52.1868C16.986 52.1868 18.186 52.6402 19.0927 53.5735L23.5194 58.0268C23.6794 58.1868 23.8927 58.2135 23.9994 58.2135C23.9994 58.1602 24.3193 58.1868 24.4793 58.0268L28.9595 53.5468C30.6128 51.8935 33.2261 51.7335 35.0661 53.1468L39.5995 56.5335C39.8928 56.7468 40.1595 56.6668 40.2928 56.5868C40.4261 56.5068 40.6661 56.3468 40.6661 56.0002V10.6668C40.6661 9.46683 40.9595 8.32016 41.4661 7.3335H15.9994C10.0794 7.3335 7.33271 10.0802 7.33271 16.0002V56.0002C7.33271 56.3735 7.57271 56.5335 7.70604 56.6135C7.86604 56.6935 8.13268 56.7468 8.39937 56.5335L12.9594 53.1202C13.786 52.5068 14.7727 52.1868 15.7594 52.1868Z" fill="url(#paint1_linear_14_41404)"/>
<path d="M31.3327 28.667H16.666C15.5727 28.667 14.666 27.7603 14.666 26.667C14.666 25.5737 15.5727 24.667 16.666 24.667H31.3327C32.426 24.667 33.3327 25.5737 33.3327 26.667C33.3327 27.7603 32.426 28.667 31.3327 28.667Z" fill="url(#paint2_linear_14_41404)"/>
<path d="M24 36.0002C22.9067 36.0002 22 35.0935 22 34.0002V19.3335C22 18.2402 22.9067 17.3335 24 17.3335C25.0933 17.3335 26 18.2402 26 19.3335V34.0002C26 35.0935 25.0933 36.0002 24 36.0002Z" fill="#F27457"/>
<defs>
<linearGradient id="paint0_linear_14_41404" x1="50.6528" y1="3.3335" x2="50.6528" y2="31.3335" gradientUnits="userSpaceOnUse">
<stop stop-color="#F27457"/>
<stop offset="1" stop-color="#A08488"/>
</linearGradient>
<linearGradient id="paint1_linear_14_41404" x1="26.6927" y1="3.3335" x2="26.6927" y2="62.2172" gradientUnits="userSpaceOnUse">
<stop stop-color="#F27457"/>
<stop offset="1" stop-color="#A08488"/>
</linearGradient>
<linearGradient id="paint2_linear_14_41404" x1="23.9993" y1="24.667" x2="23.9993" y2="28.667" gradientUnits="userSpaceOnUse">
<stop stop-color="#F27457"/>
<stop offset="1" stop-color="#A08488"/>
</linearGradient>
</defs>
</svg>
