<svg width="64" height="64" viewBox="0 0 64 64" fill="none" xmlns="http://www.w3.org/2000/svg">
<path d="M50.6673 35.6265H5.33398C4.24065 35.6265 3.33398 34.7198 3.33398 33.6265C3.33398 32.5331 4.24065 31.6265 5.33398 31.6265H50.6673C51.7607 31.6265 52.6673 32.5331 52.6673 33.6265C52.6673 34.7198 51.7607 35.6265 50.6673 35.6265Z" fill="url(#paint0_linear_14_41438)"/>
<path d="M40.5873 58.0002H15.4141C6.2674 58.0002 3.33398 55.0935 3.33398 46.0535V27.4135C3.33398 20.2401 4.9607 16.0001 13.2274 15.5201C13.9207 15.4935 14.6407 15.4668 15.4141 15.4668H40.5873C49.734 15.4668 52.6673 18.3735 52.6673 27.4135V46.4802C52.5607 55.2002 49.6273 58.0002 40.5873 58.0002ZM15.4141 19.4668C14.6941 19.4668 14.0274 19.4935 13.4141 19.5201C8.64073 19.8135 7.33398 20.8268 7.33398 27.4135V46.0535C7.33398 52.8802 8.45406 54.0002 15.4141 54.0002H40.5873C47.4673 54.0002 48.5873 52.9335 48.6673 46.4535V27.4135C48.6673 20.5868 47.5473 19.4668 40.5873 19.4668H15.4141Z" fill="url(#paint1_linear_14_41438)"/>
<path d="M50.6673 48.48C50.1607 48.48 49.654 48.2933 49.3073 47.9467C48.9073 47.5733 48.6673 47.04 48.6673 46.48V27.4133C48.6673 20.5866 47.5473 19.4666 40.5873 19.4666H15.4141C14.6941 19.4666 14.0274 19.4933 13.4141 19.52C12.8807 19.5466 12.3473 19.3333 11.9473 18.96C11.5473 18.5867 11.334 18.0533 11.334 17.4933C11.4407 8.8 14.3741 6 23.4141 6H48.5873C57.734 6 60.6673 8.90667 60.6673 17.9467V36.5867C60.6673 43.76 59.0407 48 50.774 48.48C50.7473 48.48 50.694 48.48 50.6673 48.48ZM15.4141 15.4666H40.5873C49.734 15.4666 52.6673 18.3733 52.6673 27.4133V44.2667C55.7607 43.7067 56.6673 42.1067 56.6673 36.5867V17.9467C56.6673 11.12 55.5473 10 48.5873 10H23.4141C17.3341 10 15.7607 10.8266 15.4141 15.4666Z" fill="url(#paint2_linear_14_41438)"/>
<path d="M18.5614 49.4932H13.9746C12.8813 49.4932 11.9746 48.5865 11.9746 47.4932C11.9746 46.3998 12.8813 45.4932 13.9746 45.4932H18.5614C19.6547 45.4932 20.5614 46.3998 20.5614 47.4932C20.5614 48.5865 19.6814 49.4932 18.5614 49.4932Z" fill="#F27457"/>
<path d="M33.4664 49.4932H24.293C23.1996 49.4932 22.293 48.5865 22.293 47.4932C22.293 46.3998 23.1996 45.4932 24.293 45.4932H33.4664C34.5597 45.4932 35.4664 46.3998 35.4664 47.4932C35.4664 48.5865 34.5864 49.4932 33.4664 49.4932Z" fill="url(#paint3_linear_14_41438)"/>
<defs>
<linearGradient id="paint0_linear_14_41438" x1="28.0007" y1="31.6265" x2="28.0007" y2="35.6265" gradientUnits="userSpaceOnUse">
<stop stop-color="#F27457"/>
<stop offset="1" stop-color="#A08488"/>
</linearGradient>
<linearGradient id="paint1_linear_14_41438" x1="28.0007" y1="15.4668" x2="28.0007" y2="58.0002" gradientUnits="userSpaceOnUse">
<stop stop-color="#F27457"/>
<stop offset="1" stop-color="#A08488"/>
</linearGradient>
<linearGradient id="paint2_linear_14_41438" x1="36.0007" y1="6" x2="36.0007" y2="48.48" gradientUnits="userSpaceOnUse">
<stop stop-color="#F27457"/>
<stop offset="1" stop-color="#A08488"/>
</linearGradient>
<linearGradient id="paint3_linear_14_41438" x1="28.8797" y1="45.4932" x2="28.8797" y2="49.4932" gradientUnits="userSpaceOnUse">
<stop stop-color="#F27457"/>
<stop offset="1" stop-color="#A08488"/>
</linearGradient>
</defs>
</svg>
